<?xml version="1.0" encoding="UTF-8" standalone="no"?>
<svg
   width="16"
   height="16"
   fill="currentColor"
   class="bi bi-1-circle"
   viewBox="0 0 16 16"
   version="1.1"
   id="svg4"
   sodipodi:docname="1-accept.svg"
   inkscape:version="1.1 (c68e22c387, 2021-05-23)"
   xmlns:inkscape="http://www.inkscape.org/namespaces/inkscape"
   xmlns:sodipodi="http://sodipodi.sourceforge.net/DTD/sodipodi-0.dtd"
   xmlns="http://www.w3.org/2000/svg"
   xmlns:svg="http://www.w3.org/2000/svg">
  <defs
     id="defs8" />
  <sodipodi:namedview
     id="namedview6"
     pagecolor="#ffffff"
     bordercolor="#666666"
     borderopacity="1.0"
     inkscape:pageshadow="2"
     inkscape:pageopacity="0.0"
     inkscape:pagecheckerboard="0"
     showgrid="false"
     inkscape:zoom="24.0625"
     inkscape:cx="1.9324675"
     inkscape:cy="6.1506494"
     inkscape:window-width="1920"
     inkscape:window-height="974"
     inkscape:window-x="-11"
     inkscape:window-y="-11"
     inkscape:window-maximized="1"
     inkscape:current-layer="svg4" />
  <path
     id="rect1486"
     style="fill:#000000;stroke:none;stroke-width:0.2;stroke-linejoin:round"
     d="M 3.0800781 0.54101562 C 2.1561319 0.54101562 1.4121094 1.2850382 1.4121094 2.2089844 L 1.4121094 13.875 C 1.4121094 14.798946 2.1561319 15.542969 3.0800781 15.542969 L 11.46875 15.542969 C 11.770464 15.542969 12.053176 15.463249 12.296875 15.324219 C 11.499842 15.258009 10.177799 14.982442 9.5214844 14.525391 L 3.7441406 14.525391 C 2.9455666 14.525391 2.3027344 13.882558 2.3027344 13.083984 L 2.3027344 3 C 2.3027344 2.201426 2.9455666 1.5585934 3.7441406 1.5585938 L 10.804688 1.5585938 C 11.603262 1.5585938 12.246094 2.201426 12.246094 3 L 12.246094 6.125 C 12.38477 6.106195 12.524242 6.1367804 12.664062 6.1308594 C 12.82195 6.1310987 12.979715 6.2841002 13.136719 6.3007812 L 13.136719 2.2089844 C 13.136719 1.2850382 12.392696 0.54101562 11.46875 0.54101562 L 3.0800781 0.54101562 z M 3.9160156 3.7460938 C 3.5944859 3.7460938 3.3359375 4.0046422 3.3359375 4.3261719 C 3.3359375 4.6477016 3.5944859 4.9082031 3.9160156 4.9082031 L 8.3378906 4.9082031 C 8.6594203 4.9082031 8.9179688 4.6477016 8.9179688 4.3261719 C 8.9179688 4.0046422 8.6594203 3.7460938 8.3378906 3.7460938 L 3.9160156 3.7460938 z M 9.9433594 3.7460938 C 9.6218299 3.7460938 9.3613281 4.0046422 9.3613281 4.3261719 C 9.3613281 4.6477016 9.6218298 4.9082031 9.9433594 4.9082031 L 10.484375 4.9082031 C 10.805905 4.9082031 11.064453 4.6477016 11.064453 4.3261719 C 11.064453 4.0046422 10.805905 3.7460938 10.484375 3.7460938 L 9.9433594 3.7460938 z M 3.9160156 6.1425781 C 3.5944859 6.1425781 3.3359375 6.4011265 3.3359375 6.7226562 C 3.3359375 7.0441861 3.5944859 7.3027344 3.9160156 7.3027344 L 8.6269531 7.3027344 C 8.9945316 7.0048966 9.4064032 6.7663406 9.8476562 6.5957031 C 9.7901302 6.3356794 9.5591564 6.1425781 9.28125 6.1425781 L 3.9160156 6.1425781 z M 11.769531 6.5410156 C 9.5420684 6.5410485 7.7363618 8.3467559 7.7363281 10.574219 C 7.7363611 12.801682 9.5420679 14.607389 11.769531 14.607422 C 13.996994 14.607388 15.802701 12.801682 15.802734 10.574219 C 15.8027 8.3467563 13.996993 6.5410491 11.769531 6.5410156 z M 13.322266 8.0878906 C 13.457162 8.0872216 13.769494 8.2551089 13.890625 8.3359375 C 14.213638 8.5514795 14.301479 8.9855796 14.085938 9.3085938 L 11.355469 12.953125 C 11.139927 13.276139 10.703873 13.363979 10.380859 13.148438 C 10.292809 13.089678 10.225398 13.012244 10.173828 12.927734 L 8.7988281 11.490234 C 8.5462881 11.195242 8.6327364 10.596289 8.9277344 10.34375 C 9.2227264 10.091212 9.7552732 10.083911 10.007812 10.378906 L 10.705078 11.720703 L 12.742188 8.4023438 C 12.876897 8.2004566 13.09744 8.0890106 13.322266 8.0878906 z M 3.9160156 8.5253906 C 3.5944859 8.5253906 3.3359375 8.7839389 3.3359375 9.1054688 C 3.3359375 9.4269983 3.5944859 9.6855469 3.9160156 9.6855469 L 6.59375 9.6855469 C 6.9152797 9.6855469 7.1738281 9.4269984 7.1738281 9.1054688 C 7.1738282 8.7839389 6.9152797 8.5253906 6.59375 8.5253906 L 3.9160156 8.5253906 z M 3.9882812 10.904297 C 3.6667515 10.904297 3.4082031 11.162845 3.4082031 11.484375 C 3.4082031 11.805905 3.6667516 12.064453 3.9882812 12.064453 L 5.0585938 12.064453 C 5.3801235 12.064453 5.6386719 11.805905 5.6386719 11.484375 C 5.6386719 11.162845 5.3801234 10.904297 5.0585938 10.904297 L 3.9882812 10.904297 z M 6.6347656 10.904297 C 6.3132359 10.904297 6.0546875 11.162845 6.0546875 11.484375 C 6.0546875 11.805905 6.3132359 12.064453 6.6347656 12.064453 L 7.6855469 12.064453 C 7.5783376 11.686792 7.520564 11.29682 7.5136719 10.904297 L 6.6347656 10.904297 z " />
</svg>
