<?xml version="1.0" encoding="UTF-8" standalone="no"?>
<svg
   width="16"
   height="16"
   fill="currentColor"
   class="bi bi-1-circle"
   viewBox="0 0 16 16"
   version="1.1"
   id="svg4"
   sodipodi:docname="1-add-photo.svg"
   inkscape:version="1.1 (c68e22c387, 2021-05-23)"
   xmlns:inkscape="http://www.inkscape.org/namespaces/inkscape"
   xmlns:sodipodi="http://sodipodi.sourceforge.net/DTD/sodipodi-0.dtd"
   xmlns="http://www.w3.org/2000/svg"
   xmlns:svg="http://www.w3.org/2000/svg">
  <defs
     id="defs8" />
  <sodipodi:namedview
     id="namedview6"
     pagecolor="#ffffff"
     bordercolor="#666666"
     borderopacity="1.0"
     inkscape:pageshadow="2"
     inkscape:pageopacity="0.0"
     inkscape:pagecheckerboard="0"
     showgrid="false"
     inkscape:zoom="8"
     inkscape:cx="-10.1875"
     inkscape:cy="31.5"
     inkscape:window-width="1920"
     inkscape:window-height="974"
     inkscape:window-x="-11"
     inkscape:window-y="-11"
     inkscape:window-maximized="1"
     inkscape:current-layer="svg4"
     inkscape:snap-global="false" />
  <path
     id="circle15187"
     style="fill:#000000;stroke:none;stroke-width:0.2;stroke-linejoin:round"
     d="m 2.609375,1.6074219 c -0.5467688,0 -0.9863281,0.4415124 -0.9863281,0.9882812 V 13.451172 c 0,0.54677 0.4395593,0.986328 0.9863281,0.986328 H 9.7910156 A 3.2911253,3.2911253 0 0 1 9.4707031,13.488281 H 3.4101562 c -0.4657662,0 -0.8398437,-0.374077 -0.8398437,-0.839843 V 3.3984375 c 0,-0.4657662 0.3740776,-0.839844 0.8398437,-0.8398437 h 9.2167968 c 0.465767,0 0.841797,0.3740775 0.841797,0.8398437 v 6.3320313 a 3.2911253,3.2911253 0 0 1 0.947266,0.3867182 V 2.5957031 c 0,-0.5467688 -0.441512,-0.9882812 -0.988282,-0.9882812 z m 4.1542969,2.4375 A 1.3311369,1.3311369 0 0 0 5.4335938,5.375 1.3311369,1.3311369 0 0 0 6.7636719,6.7070312 1.3311369,1.3311369 0 0 0 8.0957031,5.375 1.3311369,1.3311369 0 0 0 6.7636719,4.0449219 Z m 4.7949221,1.2734375 c -0.172873,0.00364 -0.369026,0.2677598 -0.757813,0.8320312 L 8.390625,9.2636719 C 7.7664126,10.070445 7.7946337,10.211213 7.0703125,9.3730469 L 6.3320312,8.625 C 5.7719707,8.0254018 5.5100973,7.7050813 4.9960938,8.3945312 L 2.9921875,10.693359 c -0.076797,0.124225 -0.1742157,0.219428 -0.171875,0.416016 l 0.011719,1.384766 c 0.01038,0.578858 0.2672291,0.733093 0.8066407,0.771484 l 5.8027343,-0.0078 a 3.2911253,3.2911253 0 0 1 -0.023437,-0.328124 3.2911253,3.2911253 0 0 1 0.029297,-0.410157 l -5.1152344,0.0059 C 3.9774647,12.500751 3.8095597,12.400831 3.8027344,12.029297 l -0.00977,-0.888672 c -0.00157,-0.126178 0.064758,-0.187845 0.1152343,-0.267578 L 5.2226562,9.3984375 C 5.5605183,8.9559198 5.6857845,9.169891 6.0644531,9.5449219 l 1.0175781,0.9492191 c 0.4739894,0.540428 0.7464719,0.748716 1.7636719,-0.539063 L 10.734375,7.4941406 c 0.437682,-0.613335 0.60649,-0.9123078 0.773437,-0.90625 0.189207,0.00687 0.373756,0.4079931 0.941407,1.1992188 0.05983,0.079262 0.07978,0.80238 0.07813,0.8632812 v 1.0019532 a 3.2911253,3.2911253 0 0 1 0.18164,-0.013672 3.2911253,3.2911253 0 0 1 0.501954,0.039063 V 7.90625 c 0.0025,-0.094886 -0.02812,-0.2944823 -0.119141,-0.4179688 L 12.306641,6.25 C 11.92106,5.6430338 11.754516,5.314209 11.558594,5.3183594 Z m 1.15039,4.9746096 a 2.6368496,2.6368496 0 0 0 -2.636718,2.636719 2.6368496,2.6368496 0 0 0 2.636718,2.636718 2.6368496,2.6368496 0 0 0 2.636719,-2.636718 2.6368496,2.6368496 0 0 0 -2.636719,-2.636719 z m -0.128906,1.220703 h 0.257813 c 0.121222,0 0.220703,0.09557 0.220703,0.216797 v 0.851562 h 0.849609 c 0.121217,0 0.21875,0.09753 0.21875,0.21875 v 0.259766 c 0,0.121227 -0.09753,0.21875 -0.21875,0.21875 h -0.849609 v 0.849609 c 0,0.121226 -0.09948,0.21875 -0.220703,0.21875 h -0.257813 c -0.121222,0 -0.220703,-0.09753 -0.220703,-0.21875 v -0.849609 h -0.849609 c -0.121221,0 -0.21875,-0.09753 -0.21875,-0.21875 v -0.259766 c 0,-0.121217 0.09753,-0.21875 0.21875,-0.21875 h 0.849609 v -0.851562 c 0,-0.121228 0.09948,-0.216797 0.220703,-0.216797 z" />
</svg>
