<?xml version="1.0" encoding="UTF-8" standalone="no"?>
<svg
   width="16"
   height="16"
   fill="currentColor"
   class="bi bi-1-circle"
   viewBox="0 0 16 16"
   version="1.1"
   id="svg4"
   sodipodi:docname="1-bold-carousel.svg"
   inkscape:version="1.1 (c68e22c387, 2021-05-23)"
   xmlns:inkscape="http://www.inkscape.org/namespaces/inkscape"
   xmlns:sodipodi="http://sodipodi.sourceforge.net/DTD/sodipodi-0.dtd"
   xmlns="http://www.w3.org/2000/svg"
   xmlns:svg="http://www.w3.org/2000/svg">
  <defs
     id="defs8" />
  <sodipodi:namedview
     id="namedview6"
     pagecolor="#ffffff"
     bordercolor="#666666"
     borderopacity="1.0"
     inkscape:pageshadow="2"
     inkscape:pageopacity="0.0"
     inkscape:pagecheckerboard="0"
     showgrid="false"
     inkscape:zoom="24.0625"
     inkscape:cx="5.4233766"
     inkscape:cy="5.7766234"
     inkscape:window-width="1920"
     inkscape:window-height="974"
     inkscape:window-x="-11"
     inkscape:window-y="-11"
     inkscape:window-maximized="1"
     inkscape:current-layer="svg4"
     inkscape:snap-global="false" />
  <path
     id="path2468"
     style="fill:#000000;stroke:none;stroke-width:1px;stroke-linecap:butt;stroke-linejoin:miter;stroke-opacity:1"
     d="M 14.570312 0.31640625 L 2.3984375 0.36132812 L 1.3457031 1.6894531 L 1.390625 12.443359 L 2.5820312 14.341797 L 15.029297 14.089844 L 15.808594 13.128906 L 15.714844 1.734375 L 14.570312 0.31640625 z M 1.0292969 2.0898438 L 0.29492188 3.015625 L 0.33984375 13.769531 L 1.5292969 15.667969 L 13.978516 15.417969 L 14.705078 14.498047 L 2.3222656 14.763672 L 1.0703125 12.648438 L 1.0292969 2.0898438 z M 3.0664062 2.4746094 L 14.054688 2.5332031 L 14.013672 8.8769531 L 3.1347656 8.9257812 L 3.0664062 2.4746094 z M 3.2363281 2.640625 L 3.2949219 8.7597656 L 13.855469 8.7148438 L 13.886719 2.6953125 L 3.2363281 2.640625 z M 8.4707031 3.671875 L 10.628906 4.1933594 L 10.560547 6.9042969 L 8.5351562 7.7109375 L 6.4550781 7.1640625 L 6.2617188 4.2480469 L 8.4707031 3.671875 z M 8.5136719 3.8105469 L 6.65625 4.3027344 L 7.484375 4.5136719 L 9.3144531 3.9941406 L 8.5136719 3.8105469 z M 9.46875 4.0625 L 7.6914062 4.578125 L 8.5195312 4.7890625 L 10.351562 4.2363281 L 9.46875 4.0625 z M 10.498047 4.3691406 L 8.625 4.9355469 L 8.6171875 7.5097656 L 10.457031 6.8027344 L 10.498047 4.3691406 z M 6.4414062 4.40625 L 6.5996094 7.0332031 L 8.4609375 7.5390625 L 8.4453125 4.9453125 L 6.4414062 4.40625 z M 10.396484 4.5644531 L 10.396484 5.0410156 L 9.5332031 5.3691406 L 9.5332031 4.8359375 L 10.396484 4.5644531 z M 10.3125 4.7011719 L 10.042969 4.7851562 L 10.042969 4.9511719 L 10.3125 4.8496094 L 10.3125 4.7011719 z M 10.273438 9.2714844 L 10.273438 11.988281 L 6.8476562 11.988281 L 6.8476562 9.3203125 L 10.273438 9.2714844 z M 10.136719 9.4101562 L 6.984375 9.453125 L 6.984375 11.849609 L 10.136719 11.849609 L 10.136719 9.4101562 z M 4.1484375 9.8007812 L 4.1484375 11.566406 L 3.1347656 11.566406 L 3.1347656 11.417969 L 3.9863281 11.417969 L 3.9863281 9.9472656 L 3.1347656 9.9589844 L 3.1347656 9.8144531 L 4.1484375 9.8007812 z M 6.6113281 9.8007812 L 6.6113281 11.566406 L 4.3847656 11.566406 L 4.3847656 9.8320312 L 6.6113281 9.8007812 z M 12.736328 9.8007812 L 12.736328 11.566406 L 10.509766 11.566406 L 10.509766 9.8320312 L 12.736328 9.8007812 z M 13.855469 9.8183594 L 13.855469 9.9628906 L 13.134766 9.9726562 L 13.134766 11.417969 L 13.855469 11.417969 L 13.855469 11.566406 L 12.974609 11.566406 L 12.974609 9.8320312 L 13.855469 9.8183594 z M 6.4492188 9.9472656 L 4.546875 9.9726562 L 4.546875 11.417969 L 6.4492188 11.417969 L 6.4492188 9.9472656 z M 12.574219 9.9472656 L 10.671875 9.9726562 L 10.671875 11.417969 L 12.574219 11.417969 L 12.574219 9.9472656 z " />
</svg>
