<?xml version="1.0" encoding="UTF-8" standalone="no"?>
<svg
   width="16"
   height="16"
   fill="currentColor"
   class="bi bi-1-circle"
   viewBox="0 0 16 16"
   version="1.1"
   id="svg4"
   sodipodi:docname="1-bold-featured.svg"
   inkscape:version="1.1 (c68e22c387, 2021-05-23)"
   xmlns:inkscape="http://www.inkscape.org/namespaces/inkscape"
   xmlns:sodipodi="http://sodipodi.sourceforge.net/DTD/sodipodi-0.dtd"
   xmlns="http://www.w3.org/2000/svg"
   xmlns:svg="http://www.w3.org/2000/svg">
  <defs
     id="defs8" />
  <sodipodi:namedview
     id="namedview6"
     pagecolor="#ffffff"
     bordercolor="#666666"
     borderopacity="1.0"
     inkscape:pageshadow="2"
     inkscape:pageopacity="0.0"
     inkscape:pagecheckerboard="0"
     showgrid="false"
     inkscape:zoom="34.029514"
     inkscape:cx="0.39671445"
     inkscape:cy="8.7277179"
     inkscape:window-width="1920"
     inkscape:window-height="974"
     inkscape:window-x="-11"
     inkscape:window-y="-11"
     inkscape:window-maximized="1"
     inkscape:current-layer="svg4"
     inkscape:snap-global="false" />
  <path
     id="path2468"
     style="fill:#000000;stroke:none;stroke-width:1px;stroke-linecap:butt;stroke-linejoin:miter;stroke-opacity:1"
     d="M 14.570312 0.31640625 L 2.3984375 0.36132812 L 1.3457031 1.6894531 L 1.390625 12.443359 L 2.5820312 14.341797 L 15.029297 14.089844 L 15.808594 13.128906 L 15.714844 1.734375 L 14.570312 0.31640625 z M 1.0292969 2.0898438 L 0.29492188 3.015625 L 0.33984375 13.769531 L 1.5292969 15.667969 L 13.978516 15.417969 L 14.705078 14.498047 L 2.3222656 14.763672 L 1.0703125 12.648438 L 1.0292969 2.0898438 z M 8.6152344 2.3339844 L 14.099609 3.6582031 L 13.923828 10.542969 L 8.7773438 12.595703 L 3.4902344 11.203125 L 3.0039062 3.796875 L 8.6152344 2.3339844 z M 8.625 2.5273438 L 3.3925781 3.890625 L 5.9277344 4.5292969 L 10.871094 3.0644531 L 8.625 2.5273438 z M 11.109375 3.1308594 L 6.1953125 4.6367188 L 8.7382812 5.2851562 L 13.679688 3.734375 L 11.109375 3.1308594 z M 13.90625 3.90625 L 8.8496094 5.5019531 L 8.8339844 12.316406 L 13.753906 10.365234 L 13.90625 3.90625 z M 3.2011719 4.0761719 L 3.609375 11.027344 L 8.6347656 12.353516 L 8.6601562 5.4882812 L 3.2011719 4.0761719 z M 13.507812 4.5996094 L 13.507812 5.8125 L 11.314453 6.6464844 L 11.314453 5.2890625 L 13.507812 4.5996094 z M 13.289062 4.9472656 L 12.607422 5.1601562 L 12.607422 5.5839844 L 13.289062 5.3242188 L 13.289062 4.9472656 z M 7.1269531 6.8417969 L 7.7753906 8.1015625 L 5.4238281 10.009766 L 4.3535156 8.6386719 L 4.78125 7.8359375 L 5.4101562 9.2226562 L 7.1269531 6.8417969 z M 12.994141 9.515625 L 13.019531 9.6328125 L 10.873047 10.458984 L 10.880859 10.279297 L 12.994141 9.515625 z M 10.59375 10.419922 L 10.621094 10.537109 L 9.3339844 11.007812 L 9.3417969 10.828125 L 10.59375 10.419922 z M 11.8125 10.515625 L 11.837891 10.632812 L 9.3339844 11.574219 L 9.3417969 11.392578 L 11.8125 10.515625 z " />
</svg>
