<?xml version="1.0" encoding="UTF-8" standalone="no"?>
<svg
   width="16"
   height="16"
   fill="currentColor"
   class="bi bi-1-circle"
   viewBox="0 0 16 16"
   version="1.1"
   id="svg4"
   sodipodi:docname="1-featured.svg"
   inkscape:version="1.1 (c68e22c387, 2021-05-23)"
   xmlns:inkscape="http://www.inkscape.org/namespaces/inkscape"
   xmlns:sodipodi="http://sodipodi.sourceforge.net/DTD/sodipodi-0.dtd"
   xmlns="http://www.w3.org/2000/svg"
   xmlns:svg="http://www.w3.org/2000/svg">
  <defs
     id="defs8" />
  <sodipodi:namedview
     id="namedview6"
     pagecolor="#ffffff"
     bordercolor="#666666"
     borderopacity="1.0"
     inkscape:pageshadow="2"
     inkscape:pageopacity="0.0"
     inkscape:pagecheckerboard="0"
     showgrid="false"
     inkscape:zoom="22.627417"
     inkscape:cx="2.1876116"
     inkscape:cy="11.799844"
     inkscape:window-width="1920"
     inkscape:window-height="974"
     inkscape:window-x="-11"
     inkscape:window-y="-11"
     inkscape:window-maximized="1"
     inkscape:current-layer="svg4" />
  <path
     id="path934"
     style="fill:#000000;stroke:none;stroke-width:1px;stroke-linecap:butt;stroke-linejoin:miter;stroke-opacity:1"
     d="M 0.453125 1.6953125 L 0.546875 10.570312 L 15.513672 10.503906 L 15.570312 1.7773438 L 0.453125 1.6953125 z M 0.68554688 1.9238281 L 15.337891 2 L 15.294922 10.28125 L 0.76757812 10.341797 L 0.68554688 1.9238281 z M 7.8886719 3.34375 L 4.8496094 4.1347656 L 5.1132812 8.1464844 L 7.9765625 8.8984375 L 10.763672 7.7890625 L 10.857422 4.0605469 L 7.8886719 3.34375 z M 7.9472656 3.5332031 L 9.0488281 3.7871094 L 6.5292969 4.5019531 L 5.390625 4.2109375 L 7.9472656 3.5332031 z M 9.2597656 3.8789062 L 10.474609 4.1191406 L 7.9550781 4.8808594 L 6.8144531 4.5898438 L 9.2597656 3.8789062 z M 10.675781 4.3027344 L 10.621094 7.6503906 L 8.0898438 8.6230469 L 8.0996094 5.0820312 L 10.675781 4.3027344 z M 5.0957031 4.3535156 L 7.8535156 5.09375 L 7.8730469 8.6621094 L 5.3144531 7.9667969 L 5.0957031 4.3535156 z M 10.537109 4.5703125 L 9.3496094 4.9433594 L 9.3496094 5.6777344 L 10.537109 5.2265625 L 10.537109 4.5703125 z M 10.419922 4.7578125 L 10.419922 4.9628906 L 10.050781 5.1035156 L 10.050781 4.875 L 10.419922 4.7578125 z M 10.367188 11.044922 L 5.6542969 11.113281 L 5.6542969 14.783203 L 10.367188 14.783203 L 10.367188 11.044922 z M 10.179688 11.236328 L 10.179688 14.591797 L 5.8417969 14.591797 L 5.8417969 11.296875 L 10.179688 11.236328 z M 1.9414062 11.773438 L 0.546875 11.792969 L 0.546875 11.992188 L 1.71875 11.974609 L 1.71875 14 L 0.546875 14 L 0.546875 14.203125 L 1.9414062 14.203125 L 1.9414062 11.773438 z M 5.3300781 11.773438 L 2.2675781 11.816406 L 2.2675781 14.203125 L 5.3300781 14.203125 L 5.3300781 11.773438 z M 13.755859 11.773438 L 10.693359 11.816406 L 10.693359 14.203125 L 13.755859 14.203125 L 13.755859 11.773438 z M 15.294922 11.798828 L 14.082031 11.816406 L 14.082031 14.203125 L 15.294922 14.203125 L 15.294922 14 L 14.304688 14 L 14.304688 12.011719 L 15.294922 11.998047 L 15.294922 11.798828 z M 5.1074219 11.974609 L 5.1074219 14 L 2.4902344 14 L 2.4902344 12.011719 L 5.1074219 11.974609 z M 13.533203 11.974609 L 13.533203 14 L 10.916016 14 L 10.916016 12.011719 L 13.533203 11.974609 z " />
</svg>
