<?xml version="1.0" encoding="UTF-8" standalone="no"?>
<svg
   width="16"
   height="16"
   fill="currentColor"
   class="bi bi-1-circle"
   viewBox="0 0 16 16"
   version="1.1"
   id="svg4"
   sodipodi:docname="1-chemical.svg"
   inkscape:version="1.1 (c68e22c387, 2021-05-23)"
   xmlns:inkscape="http://www.inkscape.org/namespaces/inkscape"
   xmlns:sodipodi="http://sodipodi.sourceforge.net/DTD/sodipodi-0.dtd"
   xmlns="http://www.w3.org/2000/svg"
   xmlns:svg="http://www.w3.org/2000/svg">
  <defs
     id="defs8" />
  <sodipodi:namedview
     id="namedview6"
     pagecolor="#ffffff"
     bordercolor="#666666"
     borderopacity="1.0"
     inkscape:pageshadow="2"
     inkscape:pageopacity="0.0"
     inkscape:pagecheckerboard="0"
     showgrid="false"
     inkscape:zoom="24.0625"
     inkscape:cx="5.3818182"
     inkscape:cy="5.7766234"
     inkscape:window-width="1920"
     inkscape:window-height="974"
     inkscape:window-x="-11"
     inkscape:window-y="-11"
     inkscape:window-maximized="1"
     inkscape:current-layer="svg4"
     inkscape:snap-global="false" />
  <path
     id="path2468"
     style="fill:#000000;stroke:none;stroke-width:1px;stroke-linecap:butt;stroke-linejoin:miter;stroke-opacity:1"
     d="M 14.570312 0.31640625 L 2.3984375 0.36132812 L 1.3457031 1.6894531 L 1.390625 12.443359 L 2.5820312 14.341797 L 15.029297 14.089844 L 15.808594 13.128906 L 15.714844 1.734375 L 14.570312 0.31640625 z M 1.0292969 2.0898438 L 0.29492188 3.015625 L 0.33984375 13.769531 L 1.5292969 15.667969 L 13.978516 15.417969 L 14.705078 14.498047 L 2.3222656 14.763672 L 1.0703125 12.648438 L 1.0292969 2.0898438 z M 8.3984375 2.3574219 L 8.4453125 3.1835938 L 8.0429688 3.2070312 L 8.625 11.269531 L 8.3867188 12.152344 L 7.4003906 12.386719 L 6.6503906 12.240234 L 6.1894531 11.498047 L 5.5996094 3.3476562 L 5.234375 3.3691406 L 5.078125 2.5488281 L 8.3984375 2.3574219 z M 7.6035156 3.1972656 L 6.0605469 3.3183594 L 6.5878906 11.347656 L 6.8847656 11.849609 L 7.375 11.982422 L 8.0234375 11.765625 L 8.2246094 11.181641 L 7.6035156 3.1972656 z M 8.7890625 4.359375 L 11.972656 5.3183594 L 11.734375 6.1113281 L 11.347656 5.9941406 L 9.9160156 11.150391 L 9.390625 11.896484 L 8.9257812 11.841797 L 8.8945312 11.400391 L 9.1835938 11.410156 L 9.5703125 10.927734 L 10.939453 5.8339844 L 9.4492188 5.4199219 L 8.6621094 8.140625 L 8.5703125 6.8457031 L 9.0039062 5.2871094 L 8.6523438 5.1816406 L 8.7890625 4.359375 z M 7.3183594 5.796875 C 7.4092165 5.7880223 7.5129901 5.8112245 7.6308594 5.8847656 L 8.015625 11.162109 L 7.8632812 11.587891 L 7.375 11.75 L 7.0039062 11.652344 L 6.78125 11.285156 L 6.4414062 5.9511719 C 6.7459454 6.4510496 6.9246457 5.8352376 7.3183594 5.796875 z M 9.8144531 7.75 C 9.9289361 7.7421897 10.045849 7.7645796 10.158203 7.8457031 L 9.3066406 10.632812 L 9.0722656 10.996094 L 8.859375 10.986328 L 8.7226562 8.5996094 L 9.0058594 7.7988281 C 9.1455106 8.0623656 9.4709975 7.7734282 9.8144531 7.75 z " />
</svg>
