<?xml version="1.0" encoding="UTF-8" standalone="no"?>
<svg
   width="16"
   height="8"
   fill="currentColor"
   class="bi bi-1-circle"
   viewBox="0 0 16 8"
   version="1.1"
   id="svg4"
   sodipodi:docname="1-featured-type-c.svg"
   inkscape:version="1.1 (c68e22c387, 2021-05-23)"
   xmlns:inkscape="http://www.inkscape.org/namespaces/inkscape"
   xmlns:sodipodi="http://sodipodi.sourceforge.net/DTD/sodipodi-0.dtd"
   xmlns="http://www.w3.org/2000/svg"
   xmlns:svg="http://www.w3.org/2000/svg">
  <defs
     id="defs8" />
  <sodipodi:namedview
     id="namedview6"
     pagecolor="#ffffff"
     bordercolor="#666666"
     borderopacity="1.0"
     inkscape:pageshadow="2"
     inkscape:pageopacity="0.0"
     inkscape:pagecheckerboard="0"
     showgrid="false"
     inkscape:snap-global="false"
     inkscape:zoom="16.000001"
     inkscape:cx="-5.3749998"
     inkscape:cy="15.187499"
     inkscape:window-width="1920"
     inkscape:window-height="974"
     inkscape:window-x="-11"
     inkscape:window-y="-11"
     inkscape:window-maximized="1"
     inkscape:current-layer="svg4"
     height="8px" />
  <path
     id="path11519"
     style="fill:#000000;stroke:none;stroke-width:5.11369;stroke-linejoin:round"
     d="m 0.32519526,0.96932991 c -0.0554,0 -0.101562,0.04421 -0.101562,0.09961 v 2.736328 c 0,0.0554 0.04616,0.09961 0.101562,0.09961 H 3.8876953 c 0.0554,0 0.09961,-0.04421 0.09961,-0.09961 v -2.736329 c 0,-0.0554 -0.04421,-0.09961 -0.09961,-0.09961 z m 3.93945304,0 c -0.0554,0 -0.101562,0.04421 -0.101562,0.09961 v 2.736328 c 0,0.0554 0.04616,0.09961 0.101562,0.09961 h 3.5625001 c 0.0554,0 0.09961,-0.04421 0.09961,-0.09961 v -2.736329 c 0,-0.0554 -0.04421,-0.09961 -0.09961,-0.09961 z m 4.0136731,0 c -0.09046,0 -0.164062,0.0736 -0.164062,0.16406199 v 3.056641 1.410156 1.3261717 c 0,0.0554 0.04616,0.09961 0.101562,0.09961 h 2.2109376 1.351562 3.888672 c 0.084,0 0.152343,-0.06834 0.152343,-0.152343 V 2.7271419 1.0689389 c 0,-0.0554 -0.04421,-0.09961 -0.09961,-0.09961 H 14.07129 Z m 0.177734,0.16796899 h 5.5136706 1.56836 c 0.05273,0 0.0957,0.04143 0.0957,0.09375 v 1.566406 3.9160147 c 0,0.07934 -0.06458,0.144532 -0.144531,0.144531 h -3.701172 -1.28711 -2.1035146 c -0.05273,2e-6 -0.09766,-0.04142 -0.09766,-0.09375 V 5.5103449 4.1802669 1.2935489 c 0,-0.08543 0.07016,-0.15625 0.156251,-0.15625 z m -7.94531314,0.0039 H 3.7021483 c 0.04891,0 0.08789,0.03898 0.08789,0.08789 v 2.416015 c 0,0.04891 -0.03898,0.08789 -0.08789,0.08789 H 0.51074226 c -0.04891,0 -0.08984,-0.03898 -0.08984,-0.08789 v -2.416019 c 0,-0.04891 0.04093,-0.08789 0.08984,-0.08789 z m 3.93945304,0 h 3.1914061 c 0.04891,0 0.08789,0.03898 0.08789,0.08789 v 2.416015 c 0,0.04891 -0.03898,0.08789 -0.08789,0.08789 H 4.4501953 c -0.04891,0 -0.08984,-0.03898 -0.08984,-0.08789 v -2.416019 c 0,-0.04891 0.04093,-0.08789 0.08984,-0.08789 z m -3.53320304,0.392578 c -0.01603,0 -0.03213,0.0075 -0.04297,0.01758 l 1.68554704,1.277344 c 0.02696,0.02047 0.06353,0.01524 0.08398,-0.01172 l 0.01367,-0.01953 c 0.02047,-0.02696 0.01524,-0.06352 -0.01172,-0.08398 l -1.550782,-1.179684 z m 5.21093814,0 0.378906,0.289062 c 0.03286,0.02494 0.07858,0.01723 0.103515,-0.01563 0.02494,-0.03286 0.01918,-0.07858 -0.01367,-0.103515 l -0.222657,-0.169907 z m -1.3222661,0.0293 c -0.0061,0.0095 -0.0098,0.02108 -0.0098,0.0332 v 0.142578 l 0.496094,0.375 c 0.02696,0.02047 0.06548,0.01524 0.08594,-0.01172 l 0.01172,-0.01758 c 0.02047,-0.02696 0.01524,-0.06547 -0.01172,-0.08594 z m -2.091797,0.0078 c -0.01885,0.0026 -0.03636,0.01482 -0.04883,0.03125 -0.02494,0.03286 -0.01919,0.07859 0.01367,0.103516 l 0.675781,0.513671 v -0.189454 l -0.58398,-0.44336 c -0.01642,-0.01247 -0.03778,-0.01821 -0.05664,-0.01563 z m 9.4550777,0.185545 c -0.02778,-0.0015 -0.05606,0.01123 -0.07422,0.03516 -0.02906,0.03829 -0.02071,0.09203 0.01758,0.121094 l 1.27539,0.96875 c 0.03829,0.02906 0.09204,0.02071 0.121094,-0.01758 0.02906,-0.03829 0.02266,-0.09203 -0.01563,-0.121094 l -1.277344,-0.96875 c -0.01436,-0.0109 -0.0302,-0.01665 -0.04687,-0.01758 z m -2.9433586,0.06836 c -0.0228,-0.0013 -0.04564,0.0097 -0.06055,0.0293 l -0.01758,0.02148 c -0.02385,0.03142 -0.01775,0.07576 0.01367,0.09961 l 2.0429676,1.550782 c 0.03142,0.02385 0.07576,0.01775 0.09961,-0.01367 l 0.01758,-0.02149 c 0.02385,-0.03142 0.01775,-0.07576 -0.01367,-0.09961 L 9.2646454,1.8404019 c -0.01178,-0.0089 -0.02538,-0.01486 -0.03906,-0.01563 z m -2.351563,0.103516 c -0.02144,8.58e-4 -0.04259,0.01275 -0.05664,0.03125 -0.02496,0.03289 -0.01923,0.07855 0.01367,0.103516 l 0.462891,0.351562 v -0.1875 l -0.373046,-0.283187 c -0.01439,-0.01092 -0.0302,-0.01629 -0.04687,-0.01563 z m -1.2285151,0.285157 c -0.02103,8.48e-4 -0.04092,0.01114 -0.05469,0.0293 l -0.0039,0.0039 c -0.0245,0.03227 -0.01862,0.07706 0.01367,0.101562 l 0.4160151,0.318382 c 0.03227,0.0245 0.07903,0.01665 0.103516,-0.01563 l 0.002,-0.0039 c 0.0245,-0.03227 0.01863,-0.07706 -0.01367,-0.101562 L 5.6924343,2.2290959 c -0.01412,-0.01072 -0.03052,-0.01628 -0.04687,-0.01563 z m -4.78906304,0.392594 v 0.18164 c 0.03007,0.01188 0.06535,0.0037 0.08594,-0.02344 0.02496,-0.03289 0.01923,-0.07855 -0.01367,-0.103515 z m 5.50390614,0.148437 c -0.01526,0.0021 -0.02898,0.01015 -0.03906,0.02344 l -0.02149,0.02734 c -0.02017,0.02658 -0.01486,0.06575 0.01172,0.08594 l 0.591797,0.449219 h 0.257813 l -0.75586,-0.574219 c -0.01329,-0.01009 -0.02967,-0.01381 -0.04492,-0.01172 z m -1.5644531,0.04883 v 0.203125 l 0.439453,0.333985 h 0.265625 z m -3.576172,0.103516 c -0.02035,0.0027 -0.03927,0.01352 -0.05273,0.03125 -0.02691,0.03546 -0.01985,0.08637 0.01563,0.113281 l 0.378906,0.289063 h 0.265625 l -0.546875,-0.416018 c -0.01773,-0.01346 -0.04021,-0.02037 -0.06055,-0.01758 z m 1.69336,0.01953 c -0.02103,8.48e-4 -0.04287,0.01309 -0.05664,0.03125 l -0.002,0.0039 c -0.0245,0.03227 -0.01862,0.07706 0.01367,0.101562 l 0.363281,0.277344 h 0.0625 c 0.03367,0 0.06055,-0.02882 0.06055,-0.0625 v -0.0332 l -0.394531,-0.302728 c -0.01412,-0.01072 -0.03053,-0.01628 -0.04687,-0.01563 z m 10.8925777,0.08008 c -0.022,0.003 -0.04209,0.01404 -0.05664,0.0332 -0.02909,0.03833 -0.0227,0.092 0.01563,0.121094 l 0.951172,0.722656 c 0.03833,0.02909 0.092,0.02075 0.121094,-0.01758 0.02909,-0.03833 0.02075,-0.092 -0.01758,-0.121093 l -0.949219,-0.720704 c -0.01916,-0.01455 -0.04246,-0.02059 -0.06445,-0.01758 z m -2.189453,0.634766 c -0.02451,9.89e-4 -0.0484,0.014 -0.06445,0.03516 l -0.0019,0.0039 c -0.02855,0.03761 -0.02199,0.09059 0.01563,0.119141 l 0.484375,0.36914 c 0.03761,0.02855 0.09059,0.02003 0.11914,-0.01758 l 0.0039,-0.0039 c 0.02855,-0.03761 0.02199,-0.09059 -0.01563,-0.11914 L 11.67286,3.6587829 c -0.01646,-0.01249 -0.03758,-0.01835 -0.05664,-0.01758 z M 0.32324226,4.0904239 c -0.0554,0 -0.09961,0.04421 -0.09961,0.09961 v 2.7363277 c 0,0.0554 0.04421,0.09961 0.09961,0.09961 H 3.8857423 c 0.0554,0 0.101562,-0.04421 0.101562,-0.09961 V 4.1900339 c 0,-0.0554 -0.04616,-0.09961 -0.101562,-0.09961 z m 3.93945304,0 c -0.0554,0 -0.09961,0.04421 -0.09961,0.09961 v 2.7363277 c 0,0.0554 0.04421,0.09961 0.09961,0.09961 h 3.5625001 c 0.0554,0 0.101563,-0.04421 0.101563,-0.09961 V 4.1900339 c 0,-0.0554 -0.04616,-0.09961 -0.101563,-0.09961 z m 4.8320311,0.0039 c -0.02371,0.0033 -0.04682,0.01645 -0.0625,0.03711 -0.03136,0.04132 -0.02374,0.0995 0.01758,0.130859 l 2.6269526,1.9941397 c 0.04132,0.03136 0.0995,0.02179 0.130859,-0.01953 0.03136,-0.04132 0.02374,-0.0995 -0.01758,-0.13086 L 9.1630854,4.1138569 c -0.02066,-0.01568 -0.04465,-0.02278 -0.06836,-0.01953 z M 0.50878926,4.2622929 H 3.7021483 c 0.04891,0 0.08789,0.03898 0.08789,0.08789 v 2.4160147 c 0,0.04891 -0.03898,0.08789 -0.08789,0.08789 H 0.50878926 c -0.04891,0 -0.08789,-0.03898 -0.08789,-0.08789 V 4.3501779 c 0,-0.04891 0.03898,-0.08789 0.08789,-0.08789 z m 3.93945304,0 h 3.1933591 c 0.04891,0 0.08789,0.03898 0.08789,0.08789 v 2.4160147 c 0,0.04891 -0.03898,0.08789 -0.08789,0.08789 H 4.4482423 c -0.04891,0 -0.08789,-0.03898 -0.08789,-0.08789 V 4.3501779 c 0,-0.04891 0.03898,-0.08789 0.08789,-0.08789 z m 8.0156257,0.0098 c -0.02248,-0.0013 -0.0439,0.0099 -0.0586,0.0293 l -0.02539,0.03125 c -0.02351,0.03098 -0.01731,0.07414 0.01367,0.09766 l 2.285156,1.7343737 c 0.03098,0.02351 0.07414,0.01731 0.09766,-0.01367 l 0.02539,-0.03125 c 0.02351,-0.03098 0.01731,-0.0761 -0.01367,-0.09961 L 12.50293,4.2876889 c -0.01162,-0.0088 -0.02557,-0.01487 -0.03906,-0.01563 z M 0.96972626,4.6548849 1.8642583,5.3326189 c 0.02696,0.02047 0.06352,0.01524 0.08398,-0.01172 l 0.01367,-0.01758 c 0.02047,-0.02696 0.01524,-0.06547 -0.01172,-0.08594 l -0.738281,-0.5625 z m 1.60156304,0 0.507812,0.386719 c 0.03286,0.02494 0.07858,0.01723 0.103516,-0.01563 0.02494,-0.03286 0.01918,-0.07858 -0.01367,-0.103516 l -0.349609,-0.267573 z m 3.7011721,0 0.732422,0.556641 c 0.03289,0.02496 0.07855,0.01923 0.103515,-0.01367 0.02496,-0.03289 0.01923,-0.07855 -0.01367,-0.103516 l -0.578125,-0.439455 z m -1.2695311,0.08984 c -0.02103,8.49e-4 -0.04091,0.01114 -0.05469,0.0293 l -0.0039,0.0039 c -0.0245,0.03227 -0.01861,0.07707 0.01367,0.101562 l 0.416015,0.31836 c 0.03227,0.0245 0.07902,0.01665 0.103516,-0.01563 l 0.002,-0.0039 c 0.0245,-0.03227 0.01861,-0.07706 -0.01367,-0.101563 l -0.416016,-0.316404 c -0.01412,-0.01072 -0.03051,-0.01628 -0.04687,-0.01563 z m 0.716796,0.541016 c -0.01526,0.0021 -0.03092,0.01015 -0.04101,0.02344 l -0.01953,0.02734 c -0.02017,0.02658 -0.01487,0.06575 0.01172,0.08594 l 1.3671881,1.0390617 h 0.195304 c 0.01554,0 0.0303,-0.0081 0.04102,-0.01758 L 5.7626994,5.2974569 c -0.01329,-0.01009 -0.02771,-0.01381 -0.04297,-0.01172 z m 1.5742191,0.04883 c -0.0044,0.0039 -0.01,0.0068 -0.01367,0.01172 -0.02641,0.0348 -0.02009,0.08409 0.01367,0.111328 z m -5.0761721,0.09766 c -0.02103,8.48e-4 -0.04287,0.01114 -0.05664,0.0293 l -0.002,0.0039 c -0.0245,0.03227 -0.02056,0.07706 0.01172,0.101562 l 0.416016,0.316406 c 0.03227,0.0245 0.07903,0.0186 0.103516,-0.01367 l 0.002,-0.0039 c 0.0245,-0.03227 0.01863,-0.07706 -0.01367,-0.101562 l -0.414067,-0.318379 c -0.01412,-0.01072 -0.0305,-0.01433 -0.04687,-0.01367 z m -1.36132804,0.203125 v 0.201172 L 1.6787113,6.4615266 h 0.267578 z m 3.93945304,0.1875 v 0.201172 l 0.574219,0.4374987 h 0.263672 c -0.0033,-0.0035 -0.0058,-0.0087 -0.0098,-0.01172 z m -1.863281,0.15039 c -0.01526,0.0021 -0.03095,0.01015 -0.04102,0.02344 l -0.01953,0.02734 c -0.02017,0.02658 -0.01486,0.0638 0.01172,0.08398 l 0.445312,0.339844 c 0.01512,-0.01103 0.02539,-0.0286 0.02539,-0.04883 V 6.2720656 L 2.9755833,5.9849569 c -0.01329,-0.01009 -0.02772,-0.01381 -0.04297,-0.01172 z" />
</svg>
