<?xml version="1.0" encoding="UTF-8" standalone="no"?>
<svg
   width="16"
   height="8"
   fill="currentColor"
   class="bi bi-1-circle"
   viewBox="0 0 16 8"
   version="1.1"
   id="svg4"
   sodipodi:docname="1-featured-type-b.svg"
   inkscape:version="1.1 (c68e22c387, 2021-05-23)"
   xmlns:inkscape="http://www.inkscape.org/namespaces/inkscape"
   xmlns:sodipodi="http://sodipodi.sourceforge.net/DTD/sodipodi-0.dtd"
   xmlns="http://www.w3.org/2000/svg"
   xmlns:svg="http://www.w3.org/2000/svg">
  <defs
     id="defs8" />
  <sodipodi:namedview
     id="namedview6"
     pagecolor="#ffffff"
     bordercolor="#666666"
     borderopacity="1.0"
     inkscape:pageshadow="2"
     inkscape:pageopacity="0.0"
     inkscape:pagecheckerboard="0"
     showgrid="false"
     inkscape:snap-global="false"
     inkscape:zoom="11.313709"
     inkscape:cx="-11.490485"
     inkscape:cy="19.622212"
     inkscape:window-width="1920"
     inkscape:window-height="974"
     inkscape:window-x="-11"
     inkscape:window-y="-11"
     inkscape:window-maximized="1"
     inkscape:current-layer="svg4" />
  <path
     id="path11078"
     style="fill:#000000;stroke:none;stroke-width:5.11369;stroke-linejoin:round"
     d="m 0.33007765,1.0459804 c -0.0554,0 -0.101562,0.04421 -0.101562,0.09961 v 2.736328 c 0,0.0554 0.04616,0.09961 0.101562,0.09961 H 3.8925777 c 0.0554,0 0.09961,-0.04421 0.09961,-0.09961 v -2.736328 c 0,-0.0554 -0.04421,-0.09961 -0.09961,-0.09961 z m 4.00195305,0.04492 c -0.09046,0 -0.164062,0.0736 -0.164062,0.164062 v 3.056643 1.410156 1.3261718 c 0,0.0554 0.04616,0.09961 0.101562,0.09961 h 2.210938 1.351562 3.8886723 c 0.084,0 0.152344,-0.06834 0.152344,-0.152343 V 2.8487144 1.1905114 c 0,-0.0554 -0.04421,-0.09961 -0.09961,-0.09961 h -1.648438 z m 7.8183603,0 c -0.0554,0 -0.09961,0.04421 -0.09961,0.09961 v 2.736328 c 0,0.0554 0.04421,0.09961 0.09961,0.09961 h 3.5625 c 0.0554,0 0.101562,-0.04421 0.101562,-0.09961 v -2.736327 c 0,-0.0554 -0.04616,-0.09961 -0.101562,-0.09961 z M 0.51562465,1.2178534 H 3.7070307 c 0.04891,0 0.08789,0.03898 0.08789,0.08789 v 2.416018 c 0,0.04891 -0.03898,0.08789 -0.08789,0.08789 H 0.51562465 c -0.04891,0 -0.08984,-0.03898 -0.08984,-0.08789 v -2.416016 c 0,-0.04891 0.04093,-0.08789 0.08984,-0.08789 z m 3.99414105,0.04101 h 5.5136723 1.568359 c 0.05272,0 0.0957,0.04143 0.0957,0.09375 v 1.566407 3.9160148 c 0,0.07934 -0.06458,0.144532 -0.144531,0.144531 H 7.8417967 6.5546877 4.4511717 c -0.05273,2e-6 -0.09766,-0.04142 -0.09766,-0.09375 V 5.6319104 4.3018324 1.4151134 c 0,-0.08543 0.07016,-0.15625 0.15625,-0.15625 z m 7.8261723,0.0039 h 3.193359 c 0.04891,0 0.08789,0.03898 0.08789,0.08789 v 2.4160159 c 0,0.04891 -0.03898,0.08789 -0.08789,0.08789 h -3.193359 c -0.04891,0 -0.08789,-0.03898 -0.08789,-0.08789 V 1.3506534 c 0,-0.04891 0.03898,-0.08789 0.08789,-0.08789 z m -10.1425793,0.347656 0.378907,0.289062 c 0.03286,0.02494 0.07858,0.01723 0.103515,-0.01563 0.02494,-0.03286 0.01918,-0.07858 -0.01367,-0.103515 l -0.222656,-0.169922 z m -1.32226505,0.0293 c -0.0061,0.0095 -0.0098,0.02108 -0.0098,0.0332 v 0.142578 l 0.49609405,0.375 c 0.02696,0.02047 0.06352,0.01524 0.08398,-0.01172 l 0.01367,-0.01758 c 0.02047,-0.02696 0.01524,-0.06547 -0.01172,-0.08594 z m 13.28906235,0.01563 0.732422,0.55664 c 0.03289,0.02496 0.07855,0.01923 0.103516,-0.01367 0.02496,-0.03289 0.01923,-0.07855 -0.01367,-0.103515 l -0.578127,-0.439449 z m -1.269531,0.08984 c -0.02103,8.49e-4 -0.04091,0.01114 -0.05469,0.0293 l -0.0039,0.0039 c -0.0245,0.03227 -0.01861,0.07706 0.01367,0.1015619 l 0.416016,0.318359 c 0.03227,0.0245 0.07902,0.01665 0.103515,-0.01563 l 0.002,-0.0039 c 0.0245,-0.03227 0.01861,-0.07706 -0.01367,-0.101562 L 12.93755,1.7608114 c -0.01412,-0.01072 -0.03051,-0.01628 -0.04687,-0.01563 z m -4.6679693,0.132813 c -0.02778,-0.0016 -0.05606,0.01123 -0.07422,0.03516 -0.02906,0.03829 -0.02266,0.09203 0.01563,0.121094 l 1.277343,0.96875 c 0.03829,0.02906 0.09204,0.02071 0.121094,-0.01758 0.02906,-0.03829 0.02071,-0.09203 -0.01758,-0.1210939 l -1.275391,-0.96875 c -0.01436,-0.0109 -0.0302,-0.01665 -0.04687,-0.01758 z m -2.943359,0.06836 c -0.0228,-0.0013 -0.0476,0.0097 -0.0625,0.0293 l -0.01563,0.02149 c -0.02385,0.03142 -0.01775,0.07576 0.01367,0.09961 l 2.042969,1.550781 c 0.03142,0.02385 0.07576,0.01775 0.09961,-0.01367 l 0.01758,-0.02148 c 0.02385,-0.03142 0.01775,-0.07576 -0.01367,-0.09961 l -2.042969,-1.550782 c -0.01178,-0.0089 -0.02538,-0.01486 -0.03906,-0.01563 z m -2.339844,0.05859 c -0.02144,8.57e-4 -0.04454,0.01275 -0.05859,0.03125 -0.02496,0.03289 -0.01729,0.07855 0.01563,0.103516 l 0.46289,0.351562 v -0.1875 l -0.373047,-0.283203 c -0.01439,-0.01092 -0.03021,-0.01629 -0.04687,-0.01563 z m 10.6660163,0.28125 c -0.01526,0.0021 -0.02898,0.01015 -0.03906,0.02344 l -0.01953,0.02734 c -0.02017,0.02658 -0.01487,0.06576 0.01172,0.08594 l 1.367187,1.039062 h 0.195313 c 0.01554,0 0.0303,-0.008 0.04102,-0.01758 l -1.511718,-1.146484 c -0.01329,-0.01009 -0.02967,-0.01381 -0.04492,-0.01172 z m -11.8945313,0.0039 c -0.02103,8.49e-4 -0.04287,0.01114 -0.05664,0.0293 l -0.002,0.0039 c -0.0245,0.03227 -0.01862,0.07706 0.01367,0.101563 l 0.414062,0.318359 c 0.03227,0.0245 0.08098,0.01665 0.105469,-0.01563 v -0.0039 c 0.0245,-0.03227 0.02058,-0.07707 -0.01172,-0.101562 l -0.416015,-0.316407 c -0.01412,-0.01072 -0.03051,-0.01628 -0.04687,-0.01563 z m 13.4707033,0.04492 c -0.0044,0.0039 -0.01,0.0068 -0.01367,0.01172 -0.02641,0.0348 -0.02009,0.08409 0.01367,0.111328 z m -2.498047,0.488281 v 0.201172 l 0.574219,0.4375 h 0.263671 c -0.0033,-0.0035 -0.0058,-0.0087 -0.0098,-0.01172 z m -10.2578133,0.0078 c -0.01526,0.0021 -0.03093,0.01015 -0.04102,0.02344 l -0.01953,0.02734 c -0.02017,0.02658 -0.01486,0.06576 0.01172,0.08594 l 0.591797,0.449218 h 0.255859 l -0.755859,-0.574218 c -0.01329,-0.01009 -0.02772,-0.01381 -0.04297,-0.01172 z m -1.56445305,0.04883 v 0.203125 l 0.43750005,0.333984 h 0.267578 z m 8.99804705,0.248047 c -0.022,0.003 -0.0421,0.01404 -0.05664,0.0332 -0.02909,0.03833 -0.0227,0.092 0.01562,0.121094 l 0.9511723,0.722656 c 0.03833,0.02909 0.092,0.02075 0.121094,-0.01758 0.02909,-0.03833 0.02075,-0.092 -0.01758,-0.121094 L 9.9238217,3.1455534 c -0.01916,-0.01455 -0.04246,-0.02059 -0.06445,-0.01758 z m -2.189453,0.634766 c -0.02451,9.89e-4 -0.04839,0.014 -0.06445,0.03516 l -0.0039,0.0039 c -0.02855,0.03761 -0.02004,0.09059 0.01758,0.119141 l 0.484375,0.36914 c 0.03761,0.02855 0.09059,0.02004 0.11914,-0.01758 l 0.0039,-0.0039 c 0.02855,-0.03761 0.02199,-0.09059 -0.01563,-0.119141 l -0.486329,-0.36914 c -0.01645,-0.01249 -0.03562,-0.01835 -0.05469,-0.01758 z m -7.33984405,0.404296 c -0.0554,0 -0.101562,0.04421 -0.101562,0.09961 v 2.7363278 c 0,0.0554 0.04616,0.09961 0.101562,0.09961 H 3.8925777 c 0.0554,0 0.09961,-0.04421 0.09961,-0.09961 V 4.2666524 c 0,-0.0554 -0.04421,-0.09961 -0.09961,-0.09961 z m 11.82031335,0.04492 c -0.0554,0 -0.09961,0.04421 -0.09961,0.09961 v 2.7363278 c 0,0.0554 0.04421,0.09961 0.09961,0.09961 h 3.5625 c 0.0554,0 0.101562,-0.04421 0.101562,-0.09961 V 4.3115724 c 0,-0.0554 -0.04616,-0.09961 -0.101562,-0.09961 z m -7.0019533,0.0039 c -0.02371,0.0032 -0.04682,0.01645 -0.0625,0.03711 -0.03136,0.04132 -0.02374,0.0995 0.01758,0.130859 l 2.626953,1.9941408 c 0.04132,0.03136 0.0995,0.02179 0.130859,-0.01953 0.03136,-0.04132 0.02374,-0.0995 -0.01758,-0.13086 L 5.2167967,4.2354334 c -0.02066,-0.01568 -0.04465,-0.02278 -0.06836,-0.01953 z M 0.51562465,4.3389084 H 3.7070307 c 0.04891,0 0.08789,0.03898 0.08789,0.08789 v 2.4160158 c 0,0.04891 -0.03898,0.08789 -0.08789,0.08789 H 0.51562465 c -0.04891,0 -0.08984,-0.03898 -0.08984,-0.08789 V 4.4267984 c 0,-0.04891 0.04093,-0.08789 0.08984,-0.08789 z m 11.82031335,0.04492 h 3.193359 c 0.04891,0 0.08789,0.03898 0.08789,0.08789 v 2.4160158 c 0,0.04891 -0.03898,0.08789 -0.08789,0.08789 h -3.193359 c -0.04891,0 -0.08789,-0.03898 -0.08789,-0.08789 V 4.4717614 c 0,-0.04891 0.03898,-0.08789 0.08789,-0.08789 z m -3.8183603,0.0098 c -0.02248,-0.0013 -0.04585,0.0099 -0.06055,0.0293 l -0.02344,0.03125 c -0.02351,0.03098 -0.01731,0.07414 0.01367,0.09766 l 2.2851563,1.7343748 c 0.03098,0.02351 0.07414,0.01731 0.09766,-0.01367 l 0.02344,-0.03125 c 0.02351,-0.03098 0.01926,-0.0761 -0.01172,-0.09961 L 8.5566407,4.4092614 c -0.01162,-0.0088 -0.02557,-0.01487 -0.03906,-0.01563 z m -7.59765605,0.337891 c -0.01603,0 -0.03018,0.0075 -0.04102,0.01758 L 2.5624957,6.0264423 c 0.02696,0.02047 0.06548,0.01524 0.08594,-0.01172 l 0.01367,-0.01953 c 0.02047,-0.02696 0.01524,-0.06352 -0.01172,-0.08398 l -1.552735,-1.179687 z m 1.79882805,0.03711 c -0.01885,0.0026 -0.03831,0.01482 -0.05078,0.03125 -0.02494,0.03286 -0.01723,0.07859 0.01563,0.103516 l 0.675781,0.5136709 V 5.2276204 l -0.58399,-0.443359 c -0.01642,-0.01247 -0.03778,-0.01821 -0.05664,-0.01563 z m 10.0781253,0.0078 0.892578,0.6777349 c 0.02696,0.02047 0.06548,0.01524 0.08594,-0.01172 l 0.01367,-0.01758 c 0.02047,-0.02696 0.01524,-0.06547 -0.01172,-0.08594 l -0.738281,-0.5625 z m 1.599609,0 0.507813,0.386719 c 0.03286,0.02494 0.08053,0.01723 0.105469,-0.01563 0.02494,-0.03286 0.01918,-0.07858 -0.01367,-0.103515 l -0.351563,-0.267579 z m -0.353515,0.777344 c -0.02103,8.489e-4 -0.04092,0.01114 -0.05469,0.0293 l -0.0039,0.0039 c -0.0245,0.03227 -0.01861,0.07706 0.01367,0.1015629 l 0.416016,0.3164061 c 0.03227,0.0245 0.07903,0.0186 0.103515,-0.01367 l 0.002,-0.0039 c 0.0245,-0.03227 0.01863,-0.07706 -0.01367,-0.101563 l -0.416015,-0.318359 c -0.01412,-0.01072 -0.0305,-0.01433 -0.04687,-0.01367 z m -1.359375,0.203125 v 0.2011719 l 0.822265,0.6249999 h 0.265625 z m -11.82226635,0.04687 v 0.181641 c 0.03007,0.01188 0.06339,0.0037 0.08398,-0.02344 0.02496,-0.03289 0.01923,-0.07855 -0.01367,-0.103515 z M 14.759766,6.0947844 c -0.01526,0.0021 -0.03095,0.01015 -0.04102,0.02344 l -0.01953,0.02734 c -0.02017,0.02658 -0.01486,0.0638 0.01172,0.08398 l 0.445312,0.339844 c 0.01512,-0.01103 0.02539,-0.0286 0.02539,-0.04883 V 6.3936052 L 14.802731,6.1064964 c -0.01329,-0.01009 -0.02772,-0.01381 -0.04297,-0.01172 z m -13.5351573,0.0098 c -0.02035,0.0027 -0.03927,0.01352 -0.05273,0.03125 -0.02691,0.03546 -0.01985,0.08637 0.01563,0.1132818 l 0.378906,0.289062 h 0.265625 L 1.2851647,6.1221634 c -0.01773,-0.01346 -0.04021,-0.02037 -0.06055,-0.01758 z m 1.691407,0.01953 c -0.02103,8.481e-4 -0.04092,0.01309 -0.05469,0.03125 l -0.0039,0.0039 c -0.0245,0.03227 -0.01862,0.07706 0.01367,0.1015618 l 0.365234,0.277344 h 0.0625 c 0.03367,0 0.06055,-0.02882 0.06055,-0.0625 v -0.0332 L 2.9648487,6.1397363 c -0.01412,-0.01072 -0.03247,-0.01629 -0.04883,-0.01563 z" />
</svg>
