<?xml version="1.0" encoding="UTF-8" standalone="no"?>
<svg
   width="16"
   height="8"
   fill="currentColor"
   class="bi bi-1-circle"
   viewBox="0 0 16 8"
   version="1.1"
   id="svg4"
   sodipodi:docname="1-featured-type-a.svg"
   inkscape:version="1.1 (c68e22c387, 2021-05-23)"
   xmlns:inkscape="http://www.inkscape.org/namespaces/inkscape"
   xmlns:sodipodi="http://sodipodi.sourceforge.net/DTD/sodipodi-0.dtd"
   xmlns="http://www.w3.org/2000/svg"
   xmlns:svg="http://www.w3.org/2000/svg">
  <path
     id="rect2004"
     style="fill:#000000;stroke:none;stroke-width:5.11369;stroke-linejoin:round"
     d="m 1.0961965,1.0220268 c -0.082116,0 -0.1489309,0.073604 -0.1489309,0.1640625 V 4.24273 5.6528862 6.9790582 c 0,0.0554 0.0419047,0.09961 0.0921956,0.09961 h 2.0070215 1.226907 3.5300174 c 0.076257,0 0.1382929,-0.06834 0.1382931,-0.152343 V 2.7798393 1.1216362 c -10e-8,-0.0554 -0.040132,-0.099609 -0.090422,-0.099609 H 6.3548764 Z m 7.0972675,0 c -0.050291,0 -0.090422,0.044209 -0.090422,0.099609 v 2.7363281 c 0,0.0554 0.040132,0.099609 0.090422,0.099609 h 3.233929 c 0.05029,0 0.09219,-0.044209 0.09219,-0.099609 V 1.1216362 c 0,-0.0554 -0.0419,-0.099609 -0.09219,-0.099609 z m 3.577888,0 c -0.05029,0 -0.09219,0.044209 -0.09219,0.099609 v 2.7363281 c 0,0.0554 0.0419,0.099609 0.09219,0.099609 h 3.233929 c 0.05029,0 0.09043,-0.044209 0.09043,-0.099609 V 1.1216362 c 0,-0.0554 -0.04013,-0.099609 -0.09043,-0.099609 z M 1.2575384,1.1899956 h 5.0051427 1.4237086 c 0.047863,0 0.086877,0.041429 0.086877,0.09375 v 1.5664062 3.9160154 c 0,0.07934 -0.058626,0.144532 -0.1312011,0.144531 H 4.2822544 3.1138559 1.2043487 c -0.047863,2e-6 -0.08865,-0.04142 -0.08865,-0.09375 V 5.5630424 4.2329643 1.3462456 c 0,-0.085431 0.063688,-0.15625 0.1418397,-0.15625 z m 7.1043594,0.00391 h 2.8988342 c 0.0444,0 0.07978,0.038978 0.07978,0.087891 v 2.4160157 c 0,0.048912 -0.03539,0.087891 -0.07978,0.087891 H 8.3618978 c -0.044401,0 -0.079785,-0.038978 -0.079785,-0.087891 V 1.2817924 c 0,-0.048912 0.035383,-0.087891 0.079785,-0.087891 z m 3.5778882,0 h 2.897061 c 0.0444,0 0.07978,0.038978 0.07978,0.087891 v 2.4160157 c 0,0.048912 -0.03539,0.087891 -0.07978,0.087891 h -2.897061 c -0.0444,0 -0.08155,-0.038978 -0.08155,-0.087891 V 1.2817924 c 0,-0.048912 0.03715,-0.087891 0.08155,-0.087891 z m -1.921918,0.3925782 0.66487,0.5566406 c 0.02986,0.024962 0.07131,0.019228 0.09397,-0.013672 0.02266,-0.032891 0.01745,-0.078551 -0.01241,-0.1035156 L 10.239491,1.58648 Z m 3.444914,0 0.343959,0.2890624 c 0.02983,0.024936 0.07133,0.017232 0.09397,-0.015625 0.02264,-0.032856 0.01741,-0.078576 -0.01241,-0.1035156 L 13.686179,1.58648 Z m -1.200313,0.029297 c -0.0055,0.00946 -0.0089,0.021082 -0.0089,0.033203 v 0.1425781 l 0.450339,0.375 c 0.02448,0.020466 0.05944,0.015243 0.07802,-0.011719 l 0.01064,-0.017578 c 0.01858,-0.026961 0.01384,-0.065472 -0.01064,-0.085937 z m -3.3970428,0.060547 c -0.019092,8.486e-4 -0.03714,0.01114 -0.049643,0.029297 l -0.00355,0.00391 c -0.022239,0.032273 -0.016894,0.077065 0.012411,0.1015625 l 0.3776462,0.3183594 c 0.029296,0.024499 0.071734,0.016648 0.093969,-0.015625 l 0.00177,-0.00391 c 0.022239,-0.032273 0.016894,-0.077064 -0.012411,-0.1015624 L 8.9079779,1.6919487 C 8.8951563,1.6812311 8.8802812,1.675663 8.8654262,1.6763237 Z M 4.6279868,1.8091362 c -0.025223,-0.00155 -0.050887,0.011227 -0.067374,0.035156 -0.026379,0.038286 -0.018798,0.092035 0.015957,0.1210938 l 1.1577606,0.96875 C 5.7690854,2.963194 5.8178771,2.954844 5.8442557,2.916558 5.8706337,2.878272 5.8648267,2.824523 5.8300718,2.7954642 L 4.6705385,1.8267143 C 4.6575054,1.8158174 4.6431202,1.810068 4.6279868,1.8091362 Z m -2.6718915,0.068359 c -0.0207,-0.00127 -0.041432,0.00966 -0.054963,0.029297 l -0.015957,0.021484 c -0.021649,0.031422 -0.016112,0.075762 0.012411,0.09961 L 3.752131,3.5786674 c 0.028523,0.023848 0.068774,0.017749 0.090422,-0.013672 L 3.85851,3.5435114 C 3.880159,3.5120904 3.874622,3.4677504 3.846099,3.4439024 L 1.9915549,1.8931206 c -0.010696,-0.00894 -0.02304,-0.01486 -0.03546,-0.015625 z m 12.1839677,0.103516 c -0.01947,8.572e-4 -0.03866,0.01275 -0.05141,0.03125 -0.02266,0.032891 -0.01745,0.078551 0.01241,0.1035156 l 0.420198,0.3515625 v -0.1875 L 14.182615,1.9966362 c -0.01307,-0.010924 -0.02742,-0.016294 -0.04255,-0.015625 z M 9.5161125,2.2173393 c -0.01385,0.00206 -0.028081,0.010146 -0.037233,0.023437 l -0.01773,0.027344 c -0.018313,0.026584 -0.013494,0.065755 0.010638,0.085937 l 1.2410905,1.0390625 h 0.1773 c 0.0141,0 0.0275,-0.00805 0.03723,-0.017578 L 9.5551181,2.2290581 C 9.543052,2.2189671 9.5299625,2.2152451 9.5161125,2.2173393 Z m 1.4290275,0.048828 c -0.004,0.0039 -0.009,0.00679 -0.01241,0.011719 -0.02398,0.034801 -0.01823,0.084093 0.01241,0.1113281 z m 2.079714,0 c -0.01909,8.487e-4 -0.03714,0.01114 -0.04965,0.029297 l -0.0035,0.00391 c -0.02224,0.032273 -0.01691,0.077064 0.01241,0.1015625 l 0.377646,0.3183593 c 0.0293,0.024499 0.07174,0.016648 0.09397,-0.015625 l 0.0018,-0.00391 c 0.02224,-0.032273 0.01691,-0.077065 -0.01241,-0.1015625 L 13.067405,2.2817924 c -0.01282,-0.010718 -0.0277,-0.016285 -0.04255,-0.015625 z M 8.6774895,2.7544487 v 0.2011719 l 0.5212583,0.4375 h 0.2393531 c -0.00295,-0.0035 -0.00529,-0.00873 -0.00886,-0.011719 z m 4.9962785,0.052734 c -0.01386,0.00206 -0.02631,0.010146 -0.03546,0.023437 l -0.0195,0.027344 c -0.01832,0.026584 -0.01349,0.065755 0.01064,0.085937 l 0.537215,0.4492188 h 0.234031 L 13.714547,2.8189018 c -0.01206,-0.010091 -0.02693,-0.013813 -0.04078,-0.011719 z m -1.420163,0.048829 v 0.203125 l 0.398922,0.3339844 h 0.241126 z m -6.1398549,0.203125 c -0.019968,0.00301 -0.038213,0.014039 -0.051417,0.033203 -0.026408,0.038329 -0.02061,0.092003 0.014184,0.1210938 L 6.939962,3.9360897 c 0.034794,0.029091 0.083518,0.020751 0.1099253,-0.017578 0.026408,-0.038329 0.018836,-0.092003 -0.015957,-0.1210938 L 6.1722586,3.0767143 C 6.154862,3.062169 6.1337178,3.0561222 6.1137501,3.0591367 Z M 4.1262316,3.6939018 c -0.022253,9.893e-4 -0.043931,0.013999 -0.058509,0.035156 l -0.00177,0.00391 c -0.025914,0.037613 -0.019959,0.090594 0.014184,0.1191407 l 0.4397008,0.3691406 c 0.034143,0.028547 0.082238,0.020034 0.1081523,-0.017578 l 0.00355,-0.00391 C 4.657461,4.1621491 4.6515062,4.1091681 4.6173632,4.0806205 L 4.1776481,3.71148 C 4.1627108,3.698991 4.1435396,3.693132 4.1262316,3.6939018 Z M 8.193464,4.1431206 c -0.050291,0 -0.090422,0.044209 -0.090422,0.099609 v 2.7363286 c 0,0.0554 0.040132,0.09961 0.090422,0.09961 h 3.233929 c 0.05029,0 0.09219,-0.04421 0.09219,-0.09961 V 4.24273 c 0,-0.0554 -0.0419,-0.099609 -0.09219,-0.099609 z m 3.577888,0 c -0.05029,0 -0.09219,0.044209 -0.09219,0.099609 v 2.7363286 c 0,0.0554 0.0419,0.09961 0.09219,0.09961 h 3.233929 c 0.05029,0 0.09043,-0.04421 0.09043,-0.09961 V 4.24273 c 0,-0.0554 -0.04013,-0.099609 -0.09043,-0.099609 z m -9.9340469,0.00391 c -0.021527,0.00325 -0.042501,0.016449 -0.056736,0.037109 -0.028469,0.041321 -0.021553,0.099498 0.015957,0.1308594 L 4.181194,6.3091362 c 0.03751,0.03136 0.090321,0.02179 0.1187901,-0.01953 0.02847,-0.04132 0.021553,-0.0995 -0.015957,-0.13086 L 1.8993597,4.1665581 C 1.8806046,4.1508771 1.8588316,4.1437771 1.837305,4.1470271 Z m 6.5245927,0.1679688 h 2.8988342 c 0.0444,0 0.07978,0.038978 0.07978,0.087891 v 2.4160158 c 0,0.04891 -0.03539,0.08789 -0.07978,0.08789 H 8.3618978 c -0.044401,0 -0.079785,-0.03898 -0.079785,-0.08789 v -2.41602 c 0,-0.048912 0.035383,-0.087891 0.079785,-0.087891 z m 3.5778882,0 h 2.897061 c 0.0444,0 0.07978,0.038978 0.07978,0.087891 v 2.4160158 c 0,0.04891 -0.03539,0.08789 -0.07978,0.08789 h -2.897061 c -0.0444,0 -0.08155,-0.03898 -0.08155,-0.08789 v -2.41602 c 0,-0.048912 0.03715,-0.087891 0.08155,-0.087891 z m -7.044078,0.00977 c -0.02041,-0.00126 -0.039848,0.00993 -0.05319,0.029297 l -0.023049,0.03125 c -0.021346,0.030981 -0.015713,0.074142 0.012411,0.097656 l 2.0743949,1.7343748 c 0.028123,0.02351 0.067304,0.01731 0.088649,-0.01367 l 0.023049,-0.03125 c 0.021346,-0.030981 0.015714,-0.076095 -0.012411,-0.099609 L 4.9311677,4.3403862 c -0.010546,-0.00882 -0.023213,-0.014871 -0.03546,-0.015625 z m 3.8846147,0.3828125 0.8120282,0.6777344 c 0.024474,0.020466 0.057665,0.015242 0.076238,-0.011719 l 0.012411,-0.017578 c 0.018582,-0.026962 0.013836,-0.065471 -0.010638,-0.085937 l -0.6701891,-0.5625 z m 1.4538483,0 0.460977,0.3867187 c 0.02983,0.024936 0.07133,0.017232 0.09397,-0.015625 0.02264,-0.032856 0.01741,-0.078576 -0.01241,-0.1035156 L 10.459343,4.7075819 Z m 2.074397,0 c -0.01456,0 -0.02916,0.00751 -0.039,0.017578 l 1.530084,1.2773438 c 0.02448,0.020466 0.05766,0.015243 0.07623,-0.011719 l 0.01241,-0.019531 c 0.01858,-0.026961 0.01384,-0.063518 -0.01064,-0.083984 l -1.407745,-1.179696 z m 1.631148,0.037109 c -0.01711,0.00257 -0.03301,0.014818 -0.04433,0.03125 -0.02264,0.032857 -0.01742,0.078585 0.01241,0.1035156 L 14.52125,5.3931284 V 5.2036674 L 13.991131,4.7603081 c -0.0149,-0.012468 -0.0343,-0.018208 -0.05141,-0.015625 z M 9.9132617,5.4849252 c -0.01909,8.488e-4 -0.038916,0.01114 -0.051416,0.029297 l -0.00182,0.00391 c -0.02224,0.032273 -0.018664,0.077064 0.010639,0.1015625 l 0.3776463,0.3164062 c 0.0293,0.024499 0.07174,0.018601 0.09397,-0.013672 l 0.0018,-0.00391 c 0.02224,-0.032273 0.01691,-0.077064 -0.01241,-0.1015625 L 9.9558134,5.4985893 C 9.9429957,5.4878713 9.9281266,5.4842573 9.9132668,5.4849173 Z M 8.6774895,5.6880502 V 5.8892221 L 9.423917,6.5142222 h 0.2428994 z m 3.5761155,0.091797 v 0.1816407 c 0.02729,0.011881 0.05932,0.00371 0.07802,-0.023438 0.02266,-0.032891 0.01745,-0.078551 -0.01241,-0.1035156 z M 10.562174,6.025941 c -0.01386,0.00206 -0.02808,0.010146 -0.03723,0.023437 l -0.01773,0.027344 c -0.01832,0.026584 -0.01349,0.063801 0.01064,0.083984 l 0.404242,0.339844 c 0.01372,-0.01103 0.02305,-0.0286 0.02305,-0.04883 V 6.3247612 L 10.601185,6.0376518 c -0.01206,-0.010091 -0.02517,-0.013813 -0.039,-0.011719 z m 2.021206,0.054687 c -0.01847,0.00275 -0.03564,0.013522 -0.04787,0.03125 -0.02443,0.035456 -0.01801,0.086373 0.01419,0.1132812 l 0.343959,0.289062 h 0.241126 l -0.49644,-0.4160225 c -0.0161,-0.013455 -0.0365,-0.020366 -0.05497,-0.017578 z m 1.53718,0.019531 c -0.01909,8.486e-4 -0.03892,0.013092 -0.05141,0.03125 l -0.0018,0.00391 c -0.02224,0.032273 -0.01691,0.077063 0.01241,0.1015622 l 0.329777,0.277344 h 0.05673 c 0.03056,0 0.05497,-0.02882 0.05497,-0.0625 v -0.0332 L 14.163112,6.1157768 c -0.01282,-0.010718 -0.02769,-0.016286 -0.04255,-0.015625 z" />
  <defs
     id="defs8" />
  <sodipodi:namedview
     id="namedview6"
     pagecolor="#ffffff"
     bordercolor="#666666"
     borderopacity="1.0"
     inkscape:pageshadow="2"
     inkscape:pageopacity="0.0"
     inkscape:pagecheckerboard="0"
     showgrid="false"
     inkscape:snap-global="false"
     inkscape:zoom="32.000001"
     inkscape:cx="3.1249999"
     inkscape:cy="8.7187496"
     inkscape:window-width="1920"
     inkscape:window-height="974"
     inkscape:window-x="-11"
     inkscape:window-y="-11"
     inkscape:window-maximized="1"
     inkscape:current-layer="svg4"
     height="15px" />
</svg>
