<?xml version="1.0" encoding="UTF-8" standalone="no"?>
<svg
   width="16"
   height="16"
   fill="currentColor"
   class="bi bi-1-circle"
   viewBox="0 0 16 16"
   version="1.1"
   id="svg4"
   sodipodi:docname="1-institution.svg"
   inkscape:version="1.1 (c68e22c387, 2021-05-23)"
   xmlns:inkscape="http://www.inkscape.org/namespaces/inkscape"
   xmlns:sodipodi="http://sodipodi.sourceforge.net/DTD/sodipodi-0.dtd"
   xmlns="http://www.w3.org/2000/svg"
   xmlns:svg="http://www.w3.org/2000/svg">
  <path
     id="path983"
     style="fill:#000000;stroke:none;stroke-width:1px;stroke-linecap:butt;stroke-linejoin:miter;stroke-opacity:1"
     d="m 2.28125,0.54928808 -0.011719,4.89257812 -0.00781,0.00391 v 0.058594 H 0.31054688 l -0.078125,9.9746098 H 15.798828 V 3.7328819 H 9.4648438 V 2.5063194 H 9.4433594 V 0.55514746 L 7.3730469,0.57467871 7.3925781,1.3051475 6.7148438,1.2953819 6.7246094,0.57272558 5.125,0.59030371 5.1210938,1.2934288 4.4667969,1.2875694 4.46875,0.54928808 Z M 7.8066406,1.1899131 h 0.8125 V 2.8305381 14.785616 H 3.109375 V 9.2446006 3.8715538 h 0.00391 V 1.2289756 h 0.828125 l 0.039063,0.5332032 1.5917968,0.00586 -0.00195,-0.5292969 h 0.75 l 0.00977,0.5078126 1.4746094,0.00781 z M 4.3535156,2.37546 V 3.1039756 H 5.1367188 V 2.37546 Z m 2.3632813,0 V 3.1039756 H 7.5019531 V 2.37546 Z M 4.3535156,4.0766319 V 4.8051475 H 5.1367188 V 4.0766319 Z m 2.3632813,0 V 4.8051475 H 7.5019531 V 4.0766319 Z M 9.4648438,4.3988975 H 14.927734 V 14.785616 h -1.355468 v -2.455078 h -2.667969 v 2.455078 H 9.4648438 Z M 10.783203,5.578585 v 1.0625 h 0.785156 v -1.0625 z m 1.988281,0 v 1.0625 h 0.785157 v -1.0625 z M 4.3632812,5.6899131 V 6.4145225 H 5.1308594 V 5.6899131 Z m 2.3925782,0 V 6.4145225 H 7.5253906 V 5.6899131 Z M 1.2753906,5.9965538 H 2.2617188 V 9.1000694 14.785616 H 1.2128906 Z M 4.3632812,7.1508506 V 7.8774131 H 5.1308594 V 7.1508506 Z m 2.3925782,0 V 7.8774131 H 7.5253906 V 7.1508506 Z m 4.0605466,0.6347656 v 1.046875 h 0.769532 v -1.046875 z m 1.994141,0 v 1.046875 h 0.769531 V 7.7856162 Z M 4.3632812,8.59421 V 9.3207725 H 5.1308594 V 8.59421 Z m 2.3925782,0 V 9.3207725 H 7.5253906 V 8.59421 Z m 4.0605466,1.34375 v 1.046875 h 0.769532 V 9.93796 Z m 1.994141,0 v 1.046875 h 0.769531 V 9.93796 Z m -8.4472658,0.171875 v 0.726562 h 0.7675782 v -0.726562 z m 2.3925782,0 v 0.726562 h 0.7695312 v -0.726562 z m -2.3925782,1.654297 v 0.726562 h 0.7675782 v -0.726562 z m 2.3925782,0 v 0.726562 h 0.7695312 v -0.726562 z m 4.8339846,1.083984 h 1.324218 v 1.9375 h -1.324218 z m -7.2265628,0.414063 v 0.728515 h 0.7675782 v -0.728515 z m 2.3925782,0 v 0.728515 h 0.7695312 v -0.728515 z" />
  <defs
     id="defs8" />
  <sodipodi:namedview
     id="namedview6"
     pagecolor="#ffffff"
     bordercolor="#666666"
     borderopacity="1.0"
     inkscape:pageshadow="2"
     inkscape:pageopacity="0.0"
     inkscape:pagecheckerboard="0"
     showgrid="false"
     inkscape:snap-global="false"
     inkscape:zoom="22.627417"
     inkscape:cx="-3.557631"
     inkscape:cy="10.562408"
     inkscape:window-width="1920"
     inkscape:window-height="974"
     inkscape:window-x="-11"
     inkscape:window-y="-11"
     inkscape:window-maximized="1"
     inkscape:current-layer="svg4" />
</svg>
