<?xml version="1.0" encoding="UTF-8" standalone="no"?>
<svg
   width="16"
   height="16"
   fill="currentColor"
   class="bi bi-1-circle"
   viewBox="0 0 16 16"
   version="1.1"
   id="svg4"
   sodipodi:docname="1-laboratory.svg"
   inkscape:version="1.1 (c68e22c387, 2021-05-23)"
   xmlns:inkscape="http://www.inkscape.org/namespaces/inkscape"
   xmlns:sodipodi="http://sodipodi.sourceforge.net/DTD/sodipodi-0.dtd"
   xmlns="http://www.w3.org/2000/svg"
   xmlns:svg="http://www.w3.org/2000/svg">
  <defs
     id="defs8" />
  <sodipodi:namedview
     id="namedview6"
     pagecolor="#ffffff"
     bordercolor="#666666"
     borderopacity="1.0"
     inkscape:pageshadow="2"
     inkscape:pageopacity="0.0"
     inkscape:pagecheckerboard="0"
     showgrid="false"
     inkscape:zoom="17.014757"
     inkscape:cx="-12.783021"
     inkscape:cy="20.158971"
     inkscape:window-width="1920"
     inkscape:window-height="974"
     inkscape:window-x="-11"
     inkscape:window-y="-11"
     inkscape:window-maximized="1"
     inkscape:current-layer="svg4"
     inkscape:snap-global="false" />
  <path
     id="path2468"
     style="fill:#000000;stroke:none;stroke-width:1px;stroke-linecap:butt;stroke-linejoin:miter;stroke-opacity:1"
     d="m 14.570935,0.3167043 -12.1718746,0.044922 -1.052734,1.328125 0.044921,10.7539067 1.191407,1.898436 12.4472646,-0.251953 0.779297,-0.960937 -0.09375,-11.3945317 z m -5.7460936,1.496094 2.8496086,0.722656 -0.628906,0.8125 -0.607422,2.078125 1.40625,6.4707037 -0.501953,0.710937 -7.4824216,-1.957031 -0.09375,-0.9355477 4.556641,-4.816406 0.566406,-2.064453 z m -7.794922,0.277343 -0.73437503,0.925781 0.044922,10.7539067 1.18945303,1.898437 12.4492186,-0.25 0.726562,-0.919922 -12.3828116,0.265625 -1.251953,-2.115233 z m 8.195313,0.117188 0.037109,0.671875 -0.564453,2.101562 -4.470703,4.71875 0.072265,0.7265627 6.7499996,1.791016 0.388672,-0.554687 -1.355468,-6.3203137 0.654296,-2.066406 0.414063,-0.578125 z m -0.449219,3.839843 c 0.00938,1.01e-4 0.019997,5.54e-4 0.029297,0.00195 0.107762,0.00793 0.188941,0.095682 0.18164,0.195312 -0.00843,0.099538 -0.103283,0.171409 -0.210937,0.16211 -0.106757,-0.00905 -0.186888,-0.09458 -0.179687,-0.19336 0.0065,-0.089562 0.082897,-0.160315 0.179687,-0.166016 z m 0.751953,0.810547 c 0.185018,0.014319 0.3232471,0.16485 0.3105471,0.335938 -0.01309,0.171907 -0.1735161,0.298493 -0.3593751,0.283203 -0.185929,-0.014391 -0.32656,-0.164109 -0.3125,-0.335938 0.014312,-0.170959 0.176381,-0.298413 0.361328,-0.283203 z m -1.603516,0.220703 c 0.035246,-0.00375 0.070609,-0.00298 0.107422,0 0.294558,0.023199 0.516654,0.260819 0.496094,0.533204 -0.021233,0.27318 -0.2788,0.477025 -0.574219,0.453125 -0.295469,-0.02327 -0.51605,-0.263984 -0.49414,-0.53711 0.019648,-0.238205 0.218123,-0.422963 0.464843,-0.449219 z m 2.0292971,1.078126 0.6582025,2.8828127 -0.292968,0.351562 -4.9980466,-1.306641 -0.101563,-0.4999997 1.195313,-1.273438 c 0.651801,0.746124 1.942856,0.038805 3.5390621,-0.154296 z" />
</svg>
