<?xml version="1.0" encoding="UTF-8" standalone="no"?>
<svg
   width="16"
   height="16"
   fill="currentColor"
   class="bi bi-1-circle"
   viewBox="0 0 16 16"
   version="1.1"
   id="svg4"
   sodipodi:docname="1-major.svg"
   inkscape:version="1.1 (c68e22c387, 2021-05-23)"
   xmlns:inkscape="http://www.inkscape.org/namespaces/inkscape"
   xmlns:sodipodi="http://sodipodi.sourceforge.net/DTD/sodipodi-0.dtd"
   xmlns="http://www.w3.org/2000/svg"
   xmlns:svg="http://www.w3.org/2000/svg">
  <path
     id="path983"
     style="fill:#000000;stroke:none;stroke-width:1px;stroke-linecap:butt;stroke-linejoin:miter;stroke-opacity:1"
     d="M 8.265625 0.33789062 L 0.828125 2.3691406 L 4.2714844 3.15625 L 4.2714844 4.46875 C 4.2714844 7.4194446 12.337891 6.9121713 12.337891 4.46875 L 12.337891 3.0097656 L 13.138672 2.7949219 L 13.138672 4.4941406 L 13.617188 3.9394531 L 14.064453 4.4609375 L 14.064453 2.5429688 L 15.488281 2.1601562 L 8.265625 0.33789062 z M 8.2402344 1.2832031 L 12.560547 2.1738281 L 8.2929688 3.234375 L 3.8476562 2.3300781 L 8.2402344 1.2832031 z M 11.490234 3.2382812 L 11.490234 4.5 C 11.490234 6.1248791 5.1738282 6.3325504 5.1738281 4.4609375 L 5.1738281 3.3632812 L 8.3378906 4.0859375 L 11.490234 3.2382812 z M 15.46875 6.4785156 L 8.1757812 8.1171875 L 0.59375 6.6699219 L 0.59375 13.914062 L 7.9960938 15.457031 L 15.46875 13.978516 L 15.46875 6.4785156 z M 14.738281 7.4003906 L 14.738281 13.314453 L 8.6835938 14.537109 L 8.6835938 8.765625 L 14.738281 7.4003906 z M 1.4492188 7.5527344 L 7.7109375 8.8027344 L 7.7109375 14.611328 L 1.4492188 13.263672 L 1.4492188 7.5527344 z M 2.3867188 8.7480469 L 2.3417969 9.3203125 L 6.6289062 10.308594 L 6.6289062 9.5976562 L 2.3867188 8.7480469 z M 14.052734 8.7714844 L 12.130859 9.2480469 L 12.130859 9.8574219 L 14.097656 9.34375 L 14.052734 8.7714844 z M 11.789062 9.3085938 L 9.8339844 9.7578125 L 9.8339844 10.470703 L 11.798828 9.9570312 L 11.789062 9.3085938 z M 2.3867188 10.210938 L 2.3417969 10.783203 L 4.3085938 11.296875 L 4.3085938 10.6875 L 2.3867188 10.210938 z M 14.052734 10.238281 L 10.841797 11.056641 L 10.841797 11.667969 L 14.097656 10.810547 L 14.052734 10.238281 z M 4.6523438 10.748047 L 4.640625 11.396484 L 6.6074219 11.910156 L 6.6074219 11.197266 L 4.6523438 10.748047 z M 10.640625 11.089844 L 9.8339844 11.226562 L 9.8339844 11.9375 L 10.650391 11.738281 L 10.640625 11.089844 z M 2.3867188 11.775391 L 2.3417969 12.347656 L 5.5976562 13.205078 L 5.5976562 12.59375 L 2.3867188 11.775391 z M 14.052734 11.876953 L 13.576172 11.980469 L 13.576172 12.558594 L 14.097656 12.451172 L 14.052734 11.876953 z M 13.357422 12.039062 L 12.044922 12.357422 L 12.044922 12.935547 L 13.402344 12.611328 L 13.357422 12.039062 z M 11.693359 12.451172 L 9.8105469 12.769531 L 9.8105469 13.480469 L 11.738281 13.023438 L 11.693359 12.451172 z M 5.8007812 12.626953 L 5.7890625 13.275391 L 6.6074219 13.474609 L 6.6074219 12.763672 L 5.8007812 12.626953 z " />
  <defs
     id="defs8" />
  <sodipodi:namedview
     id="namedview6"
     pagecolor="#ffffff"
     bordercolor="#666666"
     borderopacity="1.0"
     inkscape:pageshadow="2"
     inkscape:pageopacity="0.0"
     inkscape:pagecheckerboard="0"
     showgrid="false"
     inkscape:snap-global="false"
     inkscape:zoom="11.313709"
     inkscape:cx="1.546796"
     inkscape:cy="9.0156111"
     inkscape:window-width="1920"
     inkscape:window-height="974"
     inkscape:window-x="-11"
     inkscape:window-y="-11"
     inkscape:window-maximized="1"
     inkscape:current-layer="svg4" />
</svg>
