<?xml version="1.0" encoding="UTF-8" standalone="no"?>
<svg
   width="16"
   height="16"
   fill="currentColor"
   class="bi bi-1-circle"
   viewBox="0 0 16 16"
   version="1.1"
   id="svg4"
   sodipodi:docname="1-other.svg"
   inkscape:version="1.1 (c68e22c387, 2021-05-23)"
   xmlns:inkscape="http://www.inkscape.org/namespaces/inkscape"
   xmlns:sodipodi="http://sodipodi.sourceforge.net/DTD/sodipodi-0.dtd"
   xmlns="http://www.w3.org/2000/svg"
   xmlns:svg="http://www.w3.org/2000/svg">
  <defs
     id="defs8" />
  <sodipodi:namedview
     id="namedview6"
     pagecolor="#ffffff"
     bordercolor="#666666"
     borderopacity="1.0"
     inkscape:pageshadow="2"
     inkscape:pageopacity="0.0"
     inkscape:pagecheckerboard="0"
     showgrid="false"
     inkscape:zoom="24.0625"
     inkscape:cx="-1.3506494"
     inkscape:cy="12.8"
     inkscape:window-width="1920"
     inkscape:window-height="974"
     inkscape:window-x="-11"
     inkscape:window-y="-11"
     inkscape:window-maximized="1"
     inkscape:current-layer="svg4"
     inkscape:snap-global="false" />
  <path
     id="path2468"
     style="fill:#000000;stroke:none;stroke-width:1px;stroke-linecap:butt;stroke-linejoin:miter;stroke-opacity:1"
     d="M 14.496094 -0.12695312 L 2.3242188 -0.08203125 L 1.2714844 1.2460938 L 1.3164062 12 L 2.5078125 13.896484 L 14.955078 13.644531 L 15.734375 12.685547 L 15.640625 1.2890625 L 14.496094 -0.12695312 z M 0.95507812 1.6464844 L 0.22070312 2.5703125 L 0.265625 13.326172 L 1.4550781 15.222656 L 13.904297 14.972656 L 14.630859 14.052734 L 2.2480469 14.318359 L 0.99609375 12.205078 L 0.95507812 1.6464844 z M 4.3105469 5.265625 L 5.1191406 6.0488281 L 5.3886719 7.2285156 L 4.9277344 8.1386719 L 3.9785156 8.9160156 L 2.9101562 8.8417969 L 2.5039062 8.0449219 L 2.2636719 6.8144531 L 3.1503906 5.3769531 L 4.3105469 5.265625 z M 8.3242188 5.265625 L 9.3945312 5.3417969 L 9.8007812 6.1386719 L 10.039062 7.3671875 L 9.1542969 8.8066406 L 7.9921875 8.9160156 L 7.1835938 8.1328125 L 6.9140625 6.953125 L 7.375 6.0429688 L 8.3242188 5.265625 z M 12.642578 5.265625 L 13.804688 5.3769531 L 14.6875 6.8144531 L 14.449219 8.0449219 L 14.044922 8.8417969 L 12.974609 8.9160156 L 12.025391 8.1386719 L 11.564453 7.2285156 L 11.832031 6.0488281 L 12.642578 5.265625 z " />
</svg>
