<?xml version="1.0" encoding="UTF-8" standalone="no"?>
<svg
   width="16"
   height="16"
   fill="currentColor"
   class="bi bi-1-circle"
   viewBox="0 0 16 16"
   version="1.1"
   id="svg4"
   sodipodi:docname="1-profile.svg"
   inkscape:version="1.1 (c68e22c387, 2021-05-23)"
   xmlns:inkscape="http://www.inkscape.org/namespaces/inkscape"
   xmlns:sodipodi="http://sodipodi.sourceforge.net/DTD/sodipodi-0.dtd"
   xmlns="http://www.w3.org/2000/svg"
   xmlns:svg="http://www.w3.org/2000/svg">
  <path
     id="circle1557"
     style="fill:#000000;stroke:none;stroke-width:5.1137;stroke-linejoin:round"
     d="m 7.955078,0.39843925 a 7.6897864,7.6897864 0 0 0 -7.68945,7.68945305 7.6897864,7.6897864 0 0 0 7.68945,7.6894497 7.6897864,7.6897864 0 0 0 7.68945,-7.6894497 7.6897864,7.6897864 0 0 0 -7.68945,-7.68945305 z m -0.0781,1.90429705 a 2.7730265,2.7730265 0 0 1 2.77148,2.773436 2.7730265,2.7730265 0 0 1 -2.77148,2.77344 2.7730265,2.7730265 0 0 1 -2.77344,-2.77344 2.7730265,2.7730265 0 0 1 2.77344,-2.773436 z m 2.19336,5.134766 a 4.9192732,4.61538 0 0 1 2.77149,4.0468697 6.60968,6.60968 0 0 1 -4.89063,2.17774 6.60968,6.60968 0 0 1 -4.92578,-2.21289 4.9192732,4.61538 0 0 1 2.69727,-3.9706997 3.2288666,3.2288666 0 0 0 2.15429,0.82812 3.2288666,3.2288666 0 0 0 2.19336,-0.86914 z" />
  <defs
     id="defs8" />
  <sodipodi:namedview
     id="namedview6"
     pagecolor="#ffffff"
     bordercolor="#666666"
     borderopacity="1.0"
     inkscape:pageshadow="2"
     inkscape:pageopacity="0.0"
     inkscape:pagecheckerboard="0"
     showgrid="false"
     inkscape:zoom="16"
     inkscape:cx="29.96875"
     inkscape:cy="2.1875"
     inkscape:window-width="1920"
     inkscape:window-height="974"
     inkscape:window-x="-11"
     inkscape:window-y="-11"
     inkscape:window-maximized="1"
     inkscape:current-layer="svg4" />
</svg>
