<?xml version="1.0" encoding="UTF-8" standalone="no"?>
<svg
   width="16"
   height="16"
   fill="currentColor"
   class="bi bi-1-circle"
   viewBox="0 0 16 16"
   version="1.1"
   id="svg4"
   sodipodi:docname="1-sandbox.svg"
   inkscape:version="1.1 (c68e22c387, 2021-05-23)"
   xmlns:inkscape="http://www.inkscape.org/namespaces/inkscape"
   xmlns:sodipodi="http://sodipodi.sourceforge.net/DTD/sodipodi-0.dtd"
   xmlns="http://www.w3.org/2000/svg"
   xmlns:svg="http://www.w3.org/2000/svg">
  <defs
     id="defs8" />
  <sodipodi:namedview
     id="namedview6"
     pagecolor="#ffffff"
     bordercolor="#666666"
     borderopacity="1.0"
     inkscape:pageshadow="2"
     inkscape:pageopacity="0.0"
     inkscape:pagecheckerboard="0"
     showgrid="false"
     inkscape:zoom="24.0625"
     inkscape:cx="3.5532468"
     inkscape:cy="9.3090909"
     inkscape:window-width="1920"
     inkscape:window-height="974"
     inkscape:window-x="-11"
     inkscape:window-y="-11"
     inkscape:window-maximized="1"
     inkscape:current-layer="svg4" />
  <path
     id="rect1486"
     style="fill:#000000;stroke:none;stroke-width:0.2;stroke-linejoin:round"
     d="m 3.0808441,0.54101562 c -0.9239462,0 -1.6679687,0.74402258 -1.6679687,1.66796878 V 13.875 c 0,0.923946 0.7440225,1.667969 1.6679687,1.667969 h 8.3886729 c 0.301714,0 0.584426,-0.07972 0.828125,-0.21875 -0.797033,-0.06621 -2.120775,-0.341777 -2.7770899,-0.798828 H 3.7449066 c -0.798574,0 -1.4414063,-0.642833 -1.4414063,-1.441407 V 3 c 0,-0.798574 0.6428323,-1.4414065 1.4414063,-1.4414062 h 7.0605474 c 0.798574,0 1.441407,0.6428322 1.441407,1.4414062 v 3.125487 c 0.138676,-0.018805 0.278148,0.010371 0.417968,0.00445 0.157887,2.393e-4 0.315653,0.1541645 0.472657,0.1708455 V 2.2089844 c 0,-0.9239462 -0.744023,-1.66796878 -1.667969,-1.66796878 z M 3.9167816,3.7460938 c -0.3215297,0 -0.5800781,0.2585484 -0.5800781,0.5800781 0,0.3215297 0.2585484,0.5820312 0.5800781,0.5820312 h 4.421875 c 0.3215297,0 0.5800781,-0.2605015 0.5800781,-0.5820312 0,-0.3215297 -0.2585484,-0.5800781 -0.5800781,-0.5800781 z m 6.0273437,0 c -0.3215295,0 -0.5820312,0.2585484 -0.5820312,0.5800781 0,0.3215297 0.2605016,0.5820312 0.5820312,0.5820312 h 0.5410157 c 0.32153,0 0.580079,-0.2605015 0.580079,-0.5820312 0,-0.3215297 -0.258549,-0.5800781 -0.580079,-0.5800781 z M 3.9167816,6.1425781 c -0.3215297,0 -0.5800781,0.2585484 -0.5800781,0.5800781 0,0.3215298 0.2585484,0.5800782 0.5800781,0.5800782 H 8.626097 C 8.9936755,7.0048966 9.4055469,6.7663406 9.8467999,6.5957031 9.7892739,6.3356794 9.5583003,6.1425781 9.2803939,6.1425781 Z M 11.539191,6.6479013 C 10.579701,6.7142102 9.676223,7.1239992 8.9942677,7.8021981 7.427789,9.3594022 7.4199198,11.891538 8.9766896,13.458448 c 1.5572044,1.566478 4.0893414,1.574348 5.6562514,0.01758 1.566479,-1.557204 1.574348,-4.0893394 0.01758,-5.6562497 C 13.83255,6.996245 12.697203,6.5686187 11.539191,6.6479013 Z M 9.9786427,8.2592294 c 0.1359823,4.07e-4 0.2726793,0.053313 0.3769533,0.1582031 l 1.457032,1.466797 1.46875,-1.4589845 c 0.209814,-0.2085488 0.547314,-0.2078095 0.75586,0.00195 0.208549,0.2098147 0.205955,0.5473105 -0.0039,0.7558594 l -1.466797,1.4589836 1.458984,1.466797 c 0.20855,0.209816 0.207864,0.547311 -0.002,0.75586 -0.209814,0.208548 -0.547308,0.205916 -0.75586,-0.0039 l -1.458984,-1.466797 -1.464845,1.457032 c -0.209824,0.208506 -0.5473099,0.209816 -0.7558593,0 -0.2085488,-0.209816 -0.2078096,-0.549264 0.00195,-0.757813 L 11.056769,10.636182 9.5977833,9.1693856 C 9.389233,8.9595708 9.3918854,8.6240268 9.6016896,8.4154794 9.7065973,8.3112043 9.8426609,8.2588224 9.9786427,8.2592294 Z M 3.9167816,8.5253909 c -0.3215297,0 -0.5800781,0.2585483 -0.5800781,0.5800782 0,0.3215295 0.2585484,0.5800781 0.5800781,0.5800781 h 2.6769167 c 0.3215297,0 0.5800781,-0.2585484 0.5800781,-0.5800781 10e-8,-0.3215299 -0.2585484,-0.5800782 -0.5800781,-0.5800782 z m 0.072266,2.3789061 c -0.3215297,0 -0.5800781,0.258548 -0.5800781,0.580078 0,0.32153 0.2585484,0.580078 0.5800781,0.580078 h 1.0703886 c 0.3215297,0 0.5800781,-0.258548 0.5800781,-0.580078 0,-0.32153 -0.2585484,-0.580078 -0.5800781,-0.580078 z m 2.6465605,0 c -0.3215297,0 -0.5800781,0.258548 -0.5800781,0.580078 0,0.32153 0.2585484,0.580078 0.5800781,0.580078 H 7.6863889 C 7.5791796,11.686792 7.521406,11.29682 7.5145139,10.904297 Z"
     sodipodi:nodetypes="sssssccssscsscccssssssssssssssssssssccssccccccscccccccscccsccccssssssssssssssssssccs" />
</svg>
