<?xml version="1.0" encoding="UTF-8" standalone="no"?>
<svg
   width="16"
   height="16"
   fill="currentColor"
   class="bi bi-1-circle"
   viewBox="0 0 16 16"
   version="1.1"
   id="svg4"
   sodipodi:docname="1-sandbox.svg"
   inkscape:version="1.1 (c68e22c387, 2021-05-23)"
   xmlns:inkscape="http://www.inkscape.org/namespaces/inkscape"
   xmlns:sodipodi="http://sodipodi.sourceforge.net/DTD/sodipodi-0.dtd"
   xmlns="http://www.w3.org/2000/svg"
   xmlns:svg="http://www.w3.org/2000/svg">
  <path
     id="rect843"
     style="fill:#000000;stroke-width:0.2;stroke-linejoin:round"
     d="M 8.0410156 0.33203125 C 7.7532234 0.33203125 7.5214844 0.56377029 7.5214844 0.8515625 L 7.5214844 7.4589844 L 0.9140625 7.4589844 C 0.62627029 7.4589844 0.39453125 7.6907234 0.39453125 7.9785156 C 0.39453125 8.2663078 0.62627029 8.4980469 0.9140625 8.4980469 L 7.5214844 8.4980469 L 7.5214844 15.107422 C 7.5214844 15.395214 7.7532234 15.625 8.0410156 15.625 C 8.3288078 15.625 8.5605469 15.395214 8.5605469 15.107422 L 8.5605469 8.4980469 L 15.167969 8.4980469 C 15.455761 8.4980469 15.6875 8.2663078 15.6875 7.9785156 C 15.6875 7.6907234 15.455761 7.4589844 15.167969 7.4589844 L 8.5605469 7.4589844 L 8.5605469 0.8515625 C 8.5605469 0.56377029 8.3288078 0.33203125 8.0410156 0.33203125 z " />
  <defs
     id="defs8" />
  <sodipodi:namedview
     id="namedview6"
     pagecolor="#ffffff"
     bordercolor="#666666"
     borderopacity="1.0"
     inkscape:pageshadow="2"
     inkscape:pageopacity="0.0"
     inkscape:pagecheckerboard="0"
     showgrid="false"
     inkscape:zoom="24.0625"
     inkscape:cx="0.85194805"
     inkscape:cy="8.6025974"
     inkscape:window-width="1920"
     inkscape:window-height="974"
     inkscape:window-x="-11"
     inkscape:window-y="-11"
     inkscape:window-maximized="1"
     inkscape:current-layer="svg4" />
</svg>
