<?xml version="1.0" encoding="UTF-8" standalone="no"?>
<svg
   width="16"
   height="16"
   fill="currentColor"
   class="bi bi-1-circle"
   viewBox="0 0 16 16"
   version="1.1"
   id="svg4"
   sodipodi:docname="1-star.svg"
   inkscape:version="1.1 (c68e22c387, 2021-05-23)"
   xmlns:inkscape="http://www.inkscape.org/namespaces/inkscape"
   xmlns:sodipodi="http://sodipodi.sourceforge.net/DTD/sodipodi-0.dtd"
   xmlns="http://www.w3.org/2000/svg"
   xmlns:svg="http://www.w3.org/2000/svg">
  <defs
     id="defs8" />
  <sodipodi:namedview
     id="namedview6"
     pagecolor="#ffffff"
     bordercolor="#666666"
     borderopacity="1.0"
     inkscape:pageshadow="2"
     inkscape:pageopacity="0.0"
     inkscape:pagecheckerboard="0"
     showgrid="false"
     inkscape:zoom="32"
     inkscape:cx="0.625"
     inkscape:cy="8.0625"
     inkscape:window-width="1920"
     inkscape:window-height="974"
     inkscape:window-x="-11"
     inkscape:window-y="-11"
     inkscape:window-maximized="1"
     inkscape:current-layer="svg4" />
  <path
     id="path2163"
     style="fill:#000000;stroke:none;stroke-width:0.999995px;stroke-linecap:butt;stroke-linejoin:miter;stroke-opacity:1"
     d="M 7.1215532,1.757177 5.932506,4.5173426 C 5.6730714,5.3874182 5.441377,5.3659218 4.6392719,5.4978375 L 2.1605701,5.9054893 C -0.69383312,6.2750267 -0.41206004,6.251444 1.9334542,7.648332 l 1.811161,1.0786502 c 1.040283,0.4913776 0.9696288,0.623797 0.7694903,1.7226488 l -0.6140786,3.371571 c -0.5925161,2.68624 -0.4577319,2.341694 1.4211256,0.751386 L 7.155927,13.019593 c 0.7601043,-0.746318 0.7933569,-0.731895 1.5558376,-0.08678 l 2.1840724,1.84788 c 1.79294,1.630693 1.611107,1.429848 1.196333,-0.847456 L 11.45575,10.438999 C 11.160665,9.3484382 11.252162,9.3076598 12.130935,8.7842999 L 14.2686,7.5111976 c 2.13814,-1.2367883 2.328547,-1.14753 -0.126195,-1.5512413 L 11.439281,5.5153955 C 10.596048,5.4579746 10.42237,5.4065555 10.097486,4.6529801 L 8.8484063,1.7557166 C 7.9565718,-0.51691667 8.0413644,-0.37800418 7.1215532,1.757177 Z"
     sodipodi:nodetypes="ccccccccccccccccccccc" />
</svg>
