<?xml version="1.0" encoding="UTF-8" standalone="no"?>
<svg
   width="16"
   height="16"
   fill="currentColor"
   class="bi bi-1-circle"
   viewBox="0 0 16 16"
   version="1.1"
   id="svg4"
   sodipodi:docname="1-star.svg"
   inkscape:version="1.1 (c68e22c387, 2021-05-23)"
   xmlns:inkscape="http://www.inkscape.org/namespaces/inkscape"
   xmlns:sodipodi="http://sodipodi.sourceforge.net/DTD/sodipodi-0.dtd"
   xmlns="http://www.w3.org/2000/svg"
   xmlns:svg="http://www.w3.org/2000/svg">
  <defs
     id="defs8" />
  <sodipodi:namedview
     id="namedview6"
     pagecolor="#ffffff"
     bordercolor="#666666"
     borderopacity="1.0"
     inkscape:pageshadow="2"
     inkscape:pageopacity="0.0"
     inkscape:pagecheckerboard="0"
     showgrid="false"
     inkscape:zoom="32"
     inkscape:cx="3.640625"
     inkscape:cy="9.40625"
     inkscape:window-width="1920"
     inkscape:window-height="974"
     inkscape:window-x="-11"
     inkscape:window-y="-11"
     inkscape:window-maximized="1"
     inkscape:current-layer="svg4" />
  <path
     id="path2163-6"
     style="fill:#000000;stroke:none;stroke-width:0.999995px;stroke-linecap:butt;stroke-linejoin:miter;stroke-opacity:1"
     d="M 7.9960938 0.10351562 C 7.7908361 0.12106224 7.5809993 0.6902219 7.1210938 1.7578125 L 5.9335938 4.5175781 C 5.6741591 5.3876537 5.440777 5.3661312 4.6386719 5.4980469 L 2.1601562 5.90625 C -0.69424695 6.2757874 -0.41192045 6.2515495 1.9335938 7.6484375 L 3.7441406 8.7265625 C 4.7844236 9.2179401 4.7138104 9.3503664 4.5136719 10.449219 L 3.9003906 13.822266 C 3.3078745 16.508506 3.4434081 16.162574 5.3222656 14.572266 L 7.15625 13.019531 C 7.916354 12.273213 7.9504106 12.288479 8.7128906 12.933594 L 10.896484 14.78125 C 12.689424 16.411943 12.506571 16.210898 12.091797 13.933594 L 11.455078 10.439453 C 11.159993 9.3488918 11.252086 9.3085161 12.130859 8.7851562 L 14.269531 7.5117188 C 16.407671 6.2749305 16.59732 6.3646488 14.142578 5.9609375 L 11.439453 5.515625 C 10.59622 5.458204 10.42254 5.4059191 10.097656 4.6523438 L 8.8476562 1.7558594 C 8.4017393 0.61954273 8.2013514 0.085969012 7.9960938 0.10351562 z M 8 2.4882812 C 8.1430883 2.4760492 8.2848474 2.8484807 8.5957031 3.640625 L 9.4667969 5.6601562 C 9.6932787 6.1854856 9.8145128 6.2216897 10.402344 6.2617188 L 12.285156 6.5703125 C 13.996404 6.8517459 13.863578 6.790159 12.373047 7.6523438 L 10.882812 8.5390625 C 10.270207 8.903905 10.206401 8.9331119 10.412109 9.6933594 L 10.857422 12.128906 C 11.146567 13.71645 11.273324 13.857485 10.023438 12.720703 L 8.5 11.431641 C 7.9684632 10.981926 7.9458959 10.971917 7.4160156 11.492188 L 6.1367188 12.574219 C 4.8269376 13.682848 4.733432 13.9234 5.1464844 12.050781 L 5.5742188 9.7011719 C 5.7137385 8.9351446 5.762307 8.842547 5.0371094 8.5 L 3.7753906 7.7480469 C 2.1402955 6.7742542 1.9437442 6.7908134 3.9335938 6.5332031 L 5.6601562 6.2480469 C 6.2193164 6.1560863 6.381644 6.1709966 6.5625 5.5644531 L 7.390625 3.640625 C 7.7112323 2.8963908 7.8569117 2.5005133 8 2.4882812 z " />
</svg>
