<?xml version="1.0" encoding="UTF-8" standalone="no"?>
<svg
   width="16"
   height="16"
   fill="currentColor"
   class="bi bi-1-circle"
   viewBox="0 0 16 16"
   version="1.1"
   id="svg4"
   sodipodi:docname="1-temp.svg"
   inkscape:version="1.1 (c68e22c387, 2021-05-23)"
   xmlns:inkscape="http://www.inkscape.org/namespaces/inkscape"
   xmlns:sodipodi="http://sodipodi.sourceforge.net/DTD/sodipodi-0.dtd"
   xmlns="http://www.w3.org/2000/svg"
   xmlns:svg="http://www.w3.org/2000/svg">
  <defs
     id="defs8" />
  <sodipodi:namedview
     id="namedview6"
     pagecolor="#ffffff"
     bordercolor="#666666"
     borderopacity="1.0"
     inkscape:pageshadow="2"
     inkscape:pageopacity="0.0"
     inkscape:pagecheckerboard="0"
     showgrid="false"
     inkscape:zoom="17.014757"
     inkscape:cx="-3.790827"
     inkscape:cy="8.2281516"
     inkscape:window-width="1920"
     inkscape:window-height="974"
     inkscape:window-x="-11"
     inkscape:window-y="-11"
     inkscape:window-maximized="1"
     inkscape:current-layer="svg4"
     inkscape:snap-global="false" />
  <path
     id="path866"
     style="fill:#000000;stroke:none;stroke-width:0.999999px;stroke-linecap:butt;stroke-linejoin:miter;stroke-opacity:1"
     d="M 2.0108138,0.1996462 0.48628343,1.8666558 0.6762561,14.44284 2.1057997,15.633335 H 14.347949 L 15.34847,14.347853 15.777493,4.8682223 11.442951,0.1996462 Z m 0.717146,0.9055365 H 3.3532865 L 3.5100136,5.1231021 10.953773,5.3589841 10.887283,4.2128168 4.4535453,4.0782526 4.5422002,1.1051827 h 6.5128928 l 3.826364,4.1208211 -0.378362,8.3682922 -0.883373,1.135086 h -0.75989 L 12.604951,8.8275661 11.965378,8.3906301 3.7458985,8.3558001 3.4086968,8.9969581 3.5068498,14.729381 H 2.8118661 L 1.5501315,13.678199 1.3823225,2.5758859 Z m 9.1360982,8.3635414 c 0,-0.126768 0.05628,4.6612369 0.06333,5.2606579 H 4.4329678 L 4.6213574,9.6365331 c 0,0 7.2427046,-0.03307 7.2427046,-0.167809 z" />
</svg>
